<?xml version="1.0" encoding="UTF-8" standalone="no"?><!DOCTYPE svg PUBLIC "-//W3C//DTD SVG 1.1//EN" "http://www.w3.org/Graphics/SVG/1.1/DTD/svg11.dtd"><svg width="100%" height="100%" viewBox="0 0 1284 1577" version="1.1" xmlns="http://www.w3.org/2000/svg" xmlns:xlink="http://www.w3.org/1999/xlink" xml:space="preserve" xmlns:serif="http://www.serif.com/" style="fill-rule:evenodd;clip-rule:evenodd;"><g id="_2982521426224"><g><path d="M1127.23,1240.23l0.6,-0.6c9,-12.6 17.1,-24 20.7,-35.7c3.6,-11.7 3,-24 -6,-38.1c-14.4,-23.4 -21.9,-36 -26.1,-43.5c-4.2,-7.8 -4.8,-10.8 -6.3,-15.9c-0.9,-3.3 -2.1,-7.2 -4.2,-12.9c-1.8,-5.7 -4.8,-13.2 -9,-23.7l3.9,1.2c10.5,3 19.2,5.7 28.8,2.4c9.6,-3.3 20.1,-12.6 34.2,-33c12,-18 16.8,-34.5 16.2,-50.1c-0.9,-15.6 -6.6,-30 -15.6,-43.8l2.4,-0.9c11.1,-3.9 22.5,-13.5 33.6,-26.7c12.3,-15 24,-34.5 34.2,-54.9c9.3,-18.9 17.4,-39 23.4,-57.6c6.3,-18.9 10.2,-36.3 11.4,-49.2c0.3,-4.2 0.3,-8.1 0.3,-11.4c-0.3,-3.3 -0.9,-6.3 -1.8,-8.7c-1.8,-5.1 -14.7,-9.6 -32.7,-13.8c-17.7,-4.5 -39.9,-8.4 -60.3,-12c-9,-1.8 -17.7,-3.3 -24.9,-4.5c-6.9,-1.5 -13.2,-2.7 -17.7,-3.6c1.2,-2.1 2.1,-3.9 3,-5.7c1.2,-1.8 2.1,-3.9 3,-5.7c0.3,-0.3 0.3,-0.6 0.6,-0.9c0,0 0.3,-0.6 0.3,-0.9c6.6,-13.5 8.4,-20.7 6.9,-25.5c-1.2,-4.8 -5.4,-6.3 -10.2,-8.4c-1.5,-0.6 -3,-1.2 -4.2,-2.4c-1.2,-1.2 -2.1,-3 -2.4,-6c-2.4,-21.6 -12.9,-46.8 -27,-73.8c-14.4,-27 -32.7,-55.8 -51,-84.9c-17.1,-26.7 -33.9,-53.7 -47.7,-78.9c-13.8,-24.9 -24.3,-48.6 -28.2,-68.7c1.5,-1.5 2.7,-3.6 3.9,-6c1.2,-2.4 2.1,-5.1 3.3,-7.5c0.6,-1.8 1.5,-3.6 2.1,-5.1c0.6,-1.5 0.9,-2.4 1.5,-3.3c5.4,-8.7 9.9,-15.9 13.5,-21c5.1,-7.8 8.4,-12.3 10.5,-14.4l0.3,-0.6l1.5,-1.5l4.2,-5.4c25.5,-31.5 38.4,-48.9 42.9,-56.7c1.5,-2.1 2.1,-3.6 2.4,-4.5c0.3,-1.5 -0.3,-2.1 -1.5,-1.5c-0.6,0 -0.9,0.3 -1.5,0.6c0.6,-1.5 1.2,-2.7 1.5,-3.6c0.3,-1.8 -0.3,-2.4 -2.1,-1.5c-0.9,0.6 -2.1,1.5 -4.2,3.6c-7.5,7.2 -23.7,25.8 -53.1,61.8l-1.5,1.2c-1.5,1.5 -4.2,3 -6.9,4.2c-1.8,0.6 -3.6,1.2 -5.7,1.5c10.8,-10.2 29.4,-28.2 45.3,-45.9c16.8,-18.9 30.6,-37.8 29.7,-48.6c-0.3,-4.2 -2.1,-7.8 -5.4,-9.9c-3,-2.1 -7.8,-3.3 -14.7,-2.7c-2.4,0.3 -4.2,0.6 -5.7,1.2l9.3,-7.2c4.5,-3.3 9,-6.6 12,-10.2c3.3,-3.3 5.4,-6.9 5.1,-10.5c-0.3,-3 -1.8,-5.1 -4.5,-6.6c-2.7,-1.5 -6.6,-2.4 -12,-2.4l1.8,-3c0.9,-1.5 2.1,-3.3 3,-4.8c2.4,-4.2 3.6,-8.1 4.5,-10.8l0,-0.3l2.1,-1.8c0.9,-0.9 1.5,-1.5 2.4,-2.1c1.2,-1.2 1.8,-3 2.1,-4.8c0,-1.5 -0.6,-3.3 -2.1,-4.5l-0.3,-0.6l-0.3,-0.3c-0.9,-0.3 -1.5,-0.9 -2.4,-0.9c-0.9,-0.3 -1.8,-0.3 -2.4,-0.3l-0.3,0c-0.6,0 -1.2,0.3 -2.1,0.6c-0.6,0.6 -1.2,0.9 -1.8,1.5c-25.5,24.3 -67.2,27.6 -96.9,29.7c-3.6,0.3 -7.2,0.6 -10.5,0.9c-2.4,0 -4.8,0.3 -7.2,0.6c1.8,-1.5 2.7,-2.7 3,-4.2c0.3,-1.5 -0.6,-3.3 -3.6,-5.7c-0.9,-0.6 -1.8,-1.2 -2.4,-1.2c-0.6,-0.3 -1.5,-0.3 -2.4,-0.3l-3.9,0c-2.1,-0.3 -4.8,-0.6 -8.4,-1.5l5.1,-4.5c5.1,-4.8 8.7,-8.1 10.8,-10.8c2.4,-2.7 3,-5.1 2.1,-7.5c-0.9,-2.7 -2.1,-3.9 -3.9,-4.5c-1.5,-0.9 -3.6,-0.9 -6.3,-0.9c-6,-0.3 -19.8,-1.2 -31.2,-19.2c-19.2,-29.7 -33.9,-25.2 -50.4,-20.4c-9.3,2.7 -18.9,5.4 -30.9,-1.5c-42.9,-25.2 -111.9,-19.2 -158.1,-15c-11.4,1.2 -21.3,2.1 -28.5,2.4c-6.9,0.6 -11.4,0.6 -12,-0.3c-15,-17.1 -36,-20.4 -58.8,-17.4c-22.5,2.7 -46.5,11.7 -67.5,19.8c-24,8.7 -42.9,15.9 -45,11.1c-3.6,-9.3 -8.1,-14.1 -13.2,-16.2c-4.8,-1.8 -9.9,-0.9 -15,0.9c-1.2,0.6 -2.1,0.9 -3.3,1.5l-0.3,0.3l0.6,-0.9c0.9,-1.5 1.8,-3.3 2.4,-5.1c2.7,-6.9 3.9,-12.3 3.3,-15.9c-0.3,-4.2 -2.1,-6.6 -5.4,-7.8c-9.3,-3.6 -31.2,18.6 -52.5,40.2c-6.9,7.2 -14.1,14.1 -20.1,20.1c-6,5.4 -11.1,9.9 -14.7,12.3c-2.7,-2.7 -6,-4.2 -9.6,-4.2c-3.6,0.3 -7.5,1.8 -11.7,4.2c-4.8,3 -9.9,7.8 -15,13.2c-5.4,5.7 -10.5,12 -15.9,18c-9.6,11.4 -18.6,22.2 -24,24.6l0,-0.3c-2.4,-8.1 -5.7,-12.6 -9.6,-15.3c-4.2,-2.4 -9,-2.4 -13.8,-0.9c-6.3,1.8 -12.3,6.6 -17.7,11.7c-5.4,5.1 -9.6,10.5 -12,13.8c-21.9,1.2 -46.8,33 -62.7,53.7c-2.7,3.3 -5.1,6.6 -7.2,9c-1.8,2.4 -3.6,4.2 -4.8,5.4c-10.5,9.3 -22.5,24.3 -34.2,42.6c-12.9,19.8 -26.1,43.5 -37.5,67.5c-12,25.2 -22.5,50.7 -29.7,72.6c-6.6,20.7 -10.2,38.1 -9.3,48.9c1.5,23.4 1.2,42.9 0,60c-1.2,17.4 -3.3,32.1 -5.4,45.9c-3.6,25.5 -6.6,47.1 -3,72c3.6,24.9 14.1,53.1 37.5,92.1c-28.8,18.6 -29.4,46.2 -30,75.9c-0.3,11.4 -0.6,23.1 -2.7,34.8l-0.3,2.7c-4.8,27.6 -3.3,54.3 2.7,80.1c6,25.5 16.5,50.1 30,73.2c13.2,23.1 29.1,45 46.5,65.1c17.4,20.4 36.3,39.3 54.6,56.7l8.1,7.5c73.2,68.7 85.2,80.1 106.8,57.3c3.6,-3.9 6.6,-8.1 9.3,-12c2.7,-4.2 5.1,-8.4 7.2,-12c7.8,42.9 21,72.3 37.5,95.1c16.2,23.1 35.7,39.3 55.8,56.1c10.8,9 21.9,18 32.4,28.5c10.8,10.5 21.3,22.5 30.9,36.9c16.2,24.3 37.5,48.6 61.8,70.8c24.3,21.9 51.9,42.3 81,58.8c27.3,15.9 56.1,28.5 85.2,36.9c27,7.5 54,11.4 80.1,10.2c22.5,-0.9 60,6 102,13.8c36.6,6.6 76.8,14.1 114.3,17.7c36.9,3.3 71.4,2.7 96.9,-5.7c25.8,-8.7 43.2,-25.8 45.9,-55.2c1.2,-14.1 2.1,-28.8 2.4,-43.8c0.3,-15 0.3,-30 0,-45c-0.3,-15 -0.9,-30.3 -1.8,-45c-0.6,-15 -1.8,-29.7 -2.7,-44.1c-0.6,-6.6 -0.3,-12.9 0,-18.9c0.6,-6 1.5,-11.7 3,-17.1c1.5,-1.8 2.4,-3.6 3,-5.4c0.6,-1.5 0.6,-3.3 0,-5.1c3.6,-9.6 8.1,-18.3 12.9,-26.4c4.8,-8.1 10.2,-15.3 15.3,-22.2l0,-0.3Z" style="fill-rule:nonzero;"/><path d="M421.025,34.832c-0.6,-0.3 -0.6,-0.6 0,-1.2c0.3,0.9 1.5,1.8 0,1.2Z" style="fill:#bdbfc1;"/><path d="M979.625,328.532c8.4,42.9 43.2,97.5 77.7,152.1c35.7,56.7 71.7,113.1 75.9,153.3c0.3,3 0.9,5.4 1.8,7.5c-6.9,1.8 -15,3.3 -24,4.5c-39.9,6.6 -91.8,15 -96,87.6c-0.6,9.6 2.4,13.5 8.4,13.8c6.3,0.6 13.8,-6 23.7,-14.1c13.2,-11.1 30.9,-25.8 47.4,-28.5c4.5,-0.6 20.1,-8.4 33.9,-15.6c2.7,-1.2 5.1,-2.7 7.5,-3.9l-2.1,3.9c-1.8,2.7 -0.9,6.3 1.8,8.1c0.6,0.3 0.9,0.3 1.5,0.6c6.3,2.1 22.5,5.1 42,8.7c-43.2,5.1 -72.6,20.1 -95.4,31.5c-15.6,7.8 -27.9,14.1 -39,14.4c-26.7,0.3 -60,-4.5 -96,-9.9c-78,-11.4 -169.2,-24.6 -241.2,6.9c-36.9,16.2 -49.8,11.1 -65.7,4.5c-9.6,-3.9 -20.4,-8.4 -37.2,-9.6c-81.6,-6 -129.9,-19.2 -174.3,-31.5c-15.3,-4.5 -30.3,-8.7 -46.2,-12.3c-19.8,-55.5 29.7,-80.7 74.1,-103.8c13.8,-6.9 27,-13.8 37.8,-21c27.6,-18.3 41.7,-39.9 18.9,-74.1c-15.9,-23.4 -32.7,-41.1 -47.4,-56.7c-36.6,-38.1 -58.5,-60.9 -0.3,-123.3c1.8,0 3.3,0 4.5,-0.6c3,-1.2 4.2,-3.6 4.5,-6.6c0.3,-1.5 0,-3.3 -0.3,-4.8c-0.6,-2.4 -2.1,-5.1 -3.6,-7.5c-0.3,-1.5 -1.2,-3 -2.7,-3.9c-7.8,-5.4 -11.7,-9.6 -12,-13.2c-0.3,-3.3 3.6,-6.9 10.2,-10.5c8.1,-4.8 20.1,-8.7 33.9,-12.3c57.6,-14.4 145.2,-20.1 146.4,-19.5c51,26.1 69.6,21.6 83.4,18c8.7,-2.1 15,-3.6 31.5,9c23.1,18 76.5,38.4 125.4,50.4c38.1,9.6 73.8,13.8 91.2,8.4Z" style="fill:#fcceae;"/><path d="M1163.23,909.932c-13.8,-15.6 -30.6,-30 -46.5,-44.1c-8.4,-7.2 -16.5,-14.1 -24,-21c-2.4,-6.9 -4.2,-14.1 -5.4,-21.6c-1.5,-11.1 -0.9,-22.5 2.4,-31.8c3.3,-9 9.3,-16.2 19.2,-19.8c3,-1.2 6,-1.8 9.6,-2.4l0.6,-0.3c9.6,-2.1 21.6,-6 34.8,-10.5c30.9,-10.2 67.5,-22.5 83.1,-14.4c12,6.3 11.7,27 -13.8,75c-4.2,7.8 -24,41.4 -39.9,65.4c-8.1,12.3 -11.1,23.7 -12.6,22.8c-2.7,-1.2 -6,0 -7.5,2.7Z" style="fill:#d2d3d5;"/><path d="M1013.83,805.532c1.5,-2.4 0.9,-5.4 -0.9,-7.2c-19.5,-19.2 -68.1,-33.9 -119.4,-37.2c-32.1,-2.1 -65.4,0 -93.9,8.1c-29.1,8.1 -53.4,22.5 -66.3,45c-8.4,14.1 -12,31.2 -9.3,51.9c0.9,9 1.5,18.6 2.1,28.2c2.7,37.5 5.1,74.4 36.6,92.1c17.7,9.6 51.9,3.9 87.6,-7.8c44.7,-15 92.4,-40.2 108.9,-56.7c10.5,-10.5 39.3,-52.8 53.4,-81.3c3.3,-7.5 6,-13.8 7.5,-18.9c1.8,-7.8 0.6,-13.2 -4.5,-15.6l-0.9,-0.3c-0.3,0 -0.6,-0.3 -0.9,-0.3Z" style="fill:#bdbfc1;"/><path d="M175.925,737.132c-1.2,-1.5 -2.7,-3 -4.2,-4.5c-2.7,-3 -5.7,-6 -9,-8.7c18.6,-3 62.7,-9 101.1,-14.1c33,-4.2 61.5,-7.5 65.4,-7.2c17.7,2.4 33.6,5.4 48.6,8.7c0.3,0 0.6,0.3 0.9,0.3c16.8,3.6 32.4,8.1 48.6,12.6c45,12.3 93.6,25.8 176.4,31.8c15,1.2 24.9,5.4 33.6,9c18.6,7.5 33.6,13.5 75,-4.5c68.7,-30.3 158.4,-17.4 234.6,-6.3c36.9,5.4 70.5,10.5 97.8,9.9c13.8,0 27.3,-6.9 44.4,-15.3c22.5,-11.7 51.9,-26.4 95.1,-30.9c3.6,-0.3 9.6,-3 14.4,-5.4c1.2,-0.9 2.4,-1.2 3.6,-1.8c34.2,6 69.6,12.6 70.5,15.3c1.2,3 1.2,8.1 0.6,14.7c-2.1,24.6 -15.3,65.4 -33.3,102.3c-18,36.3 -40.5,68.4 -60.9,75.6c-2.4,0.9 -4.8,1.2 -7.2,1.5c-0.6,-0.9 -1.2,-1.5 -1.8,-2.4c5.7,-2.7 14.4,-13.5 23.1,-27c15.9,-24 36.3,-58.2 40.5,-66c29.4,-56.1 27,-81.6 9,-91.2c-20.1,-10.5 -59.4,2.7 -92.4,13.8c-12.9,4.2 -24.6,8.1 -33.6,10.2c-4.2,0.6 -8.4,1.5 -12,3c-13.5,5.1 -21.6,14.7 -26.1,26.7c-4.2,11.4 -4.8,24.6 -3,37.8c0,0.9 0.3,1.5 0.3,2.4c-5.1,-6 -9.3,-12.3 -12,-18l0,-0.3l-0.3,-0.3l0,-0.3c-0.6,-0.6 -1.2,-1.2 -1.8,-1.5l0,-0.3l-0.3,0l-0.3,-0.3l-0.3,0l0,-0.3l-0.6,0c-1.2,-0.3 -2.4,-0.3 -3.6,0l-0.3,0l-0.3,0.3l-0.3,0l-0.3,0.3l-0.3,0c-0.3,0.3 -0.6,0.6 -0.6,0.6c-20.4,17.7 -34.8,44.7 -50.4,73.5c-36.3,67.5 -78.6,146.4 -215.1,132.6c-28.8,-3 -50.7,-13.5 -65.7,-30c-16.2,-17.4 -25.2,-41.4 -27.3,-70.5c-6.9,-92.7 -21.9,-93.6 -73.8,-97.5c-23.7,-1.8 -56.4,-4.2 -100.5,-18.6c-31.2,-9.9 -77.1,-21.6 -123.6,-31.8l-0.6,0l-3.9,-0.9c-45,-9.6 -90,-17.4 -121.8,-20.4c-8.1,-0.6 -51.9,-3.9 -76.5,-5.7c-9.9,-0.6 -15.6,-0.9 -16.2,-0.9c-0.9,-0.3 -2.1,-0.3 -3.3,0Z" style="fill:#373435;"/><path d="M1004.52,806.732c0.3,0.3 0.6,0.6 0.9,0.6c-1.2,1.5 -1.8,3.3 -1.2,5.4c0.6,3 3.3,4.8 6.3,4.5c-0.6,0.3 -1.8,0.6 -2.1,1.5c-0.9,4.2 -3.3,9.9 -6.6,16.5c-13.5,27.9 -41.1,68.4 -51,78.3c-15.3,15.3 -60.9,39.3 -104.4,53.7c-32.7,11.1 -63.6,16.5 -78,8.7c-25.8,-14.4 -27.9,-48 -30.3,-82.5c-0.6,-9.6 -1.2,-19.2 -2.4,-28.8c-2.1,-17.7 0.9,-32.4 7.8,-44.4c11.4,-19.5 33,-32.1 59.4,-39.6c27,-7.8 59.1,-9.6 89.7,-7.5c48.9,3 94.5,16.5 111.9,33.6Z" style="fill:#d2d3d5;"/><path d="M826.625,701.732c41.7,4.5 82.8,9 92.1,-23.4c0.6,-2.1 0,-3.9 -1.2,-5.4c-2.1,-2.7 -5.7,-3 -8.4,-0.9c-0.6,0.6 -17.1,-4.2 -35.7,-9.6c-23.1,-6.9 -48.9,-14.4 -61.5,-12.6c-15,2.7 -72,17.4 -117.3,31.2c-31.5,9.9 -57.6,19.8 -61.8,25.8c-1.2,1.5 -2.1,3.3 -3,4.8c-1.2,2.1 -2.4,4.2 -3,5.1l-0.9,0.9c-2.4,2.4 -2.1,6.3 0.3,8.4c2.1,2.4 6,2.1 8.1,0l0.6,-0.6c8.1,1.8 22.5,0.6 38.7,-2.4c33.9,-6 78,-18 85.5,-20.7c16.2,-6.3 42,-3.3 67.5,-0.6Z" style="fill:#bdbfc1;"/><path d="M903.425,682.232c-11.7,14.7 -43.5,11.1 -75.6,7.5c-26.7,-2.7 -54,-5.7 -72.9,1.5c-7.2,2.7 -50.1,14.1 -83.1,20.1c-13.2,2.4 -24.3,3.9 -30.3,3.9c0.3,-0.9 0.6,-1.5 0.9,-1.8c2.4,-3.6 26.4,-11.7 55.8,-21c44.7,-13.8 100.8,-28.2 115.8,-30.9c9.6,-1.5 34.2,5.7 56.1,12.3c12.6,3.6 24.6,7.2 33.3,8.4Z" style="fill:#373435;"/><path d="M1024.33,735.632c-1.2,0 0.3,-0.3 1.2,-0.6c-0.6,0.3 -0.9,0.6 -1.2,0.6Z" style="fill:#bdbfc1;"/><path d="M1143.73,651.032c1.5,0.6 2.7,1.2 3.9,1.5c2.7,1.2 4.8,1.8 -2.4,15.6c-5.1,2.1 -13.5,6 -22.2,10.5c-13.2,6.6 -27.9,13.8 -30.3,14.4c-20.1,3.3 -39,19.2 -53.1,30.9c-5.4,4.5 -9.9,8.4 -12.9,10.2l0.3,0c3.6,-63 50.1,-70.5 86.1,-76.5c11.4,-1.8 22.2,-3.6 30.6,-6.6Z" style="fill:#373435;"/><path d="M1136.83,1213.23c-3,-1.2 -6.3,0 -7.8,3c-4.8,9.6 -88.8,15 -129,17.7c-8.1,0.6 -14.4,0.9 -18.6,1.2l-8.1,0.9c-36.6,3 -50.1,4.2 -57.3,3.9c-3.9,-0.3 -6.3,-1.2 -10.2,-2.4l-2.1,-0.6c32.7,-6.3 53.4,-22.2 72,-36.6c18,-13.8 33.6,-25.8 56.7,-23.4c18.3,34.8 37.2,36.9 56.4,27.6c9.9,-5.1 19.5,-13.2 29.1,-21.6c11.1,-9.3 22.2,-18.9 32.7,-22.2c9,18.6 -0.6,34.2 -13.8,52.5Z" style="fill:#f48884;"/><path d="M901.325,1248.63l0.6,0c4.8,1.8 7.8,2.7 13.2,3c8.4,0.6 21.9,-0.6 59.4,-3.9l8.1,-0.6c3.3,-0.3 9.9,-0.9 18,-1.5c33.6,-2.1 95.1,-6 123.9,-15.3c-9.3,13.5 -18.3,28.8 -23.4,47.4c-1.5,1.5 -3.6,2.7 -5.7,3.9c-6.9,4.2 -14.7,7.5 -17.1,8.1c-36.9,12.6 -58.5,17.1 -76.8,14.1c-18.3,-3 -34.2,-13.5 -59.4,-30.9c-9.9,-7.2 -25.8,-16.2 -40.8,-24.3Z" style="fill:#f48884;"/><path d="M418.325,1009.23c-4.2,-1.2 -10.5,-10.8 -16.2,-24.6c-6.6,-15.3 -11.7,-35.1 -12.6,-55.8c-0.9,-14.7 0.9,-29.7 5.7,-44.1c2.7,-7.8 1.2,-22.5 -0.3,-39c-2.4,-24.9 -5.4,-54.9 3.9,-68.1c45,9.6 89.1,21 119.4,30.6c45.6,14.7 78.9,17.1 103.2,18.9c44.1,3.3 56.7,4.2 62.7,86.7c2.4,31.8 12.3,58.2 30.6,77.7c17.1,18.6 41.4,30.6 73.2,33.6c144.3,14.7 188.7,-67.8 226.8,-138.6c13.5,-25.2 26.1,-48.9 42.3,-65.1c6,10.2 15.3,20.4 26.4,30.6c0,0.3 0.3,0.6 0.6,0.6c7.5,7.2 16.2,14.7 24.9,22.2c46.5,40.5 99.9,86.7 60.9,143.1c-23.1,33.6 -33,30.6 -48.9,25.8c-19.8,-6 -47.1,-13.8 -103.5,19.2c-1.8,0.9 -4.2,1.5 -7.2,1.8c-10.8,0.6 -26.4,-4.2 -39.9,-10.8c-13.5,-6.6 -24.9,-14.7 -28.2,-20.1c-0.3,-0.3 -0.3,-0.6 -0.3,-0.6c-0.3,-3.3 -3.3,-6 -6.3,-5.7c-3.3,0.3 -6,3 -5.7,6.3c0,2.1 0.9,3.9 2.1,6c4.2,7.5 17.7,17.1 33,24.6c15.3,7.5 33,12.9 45.9,12.3c4.8,-0.3 9,-1.5 12.6,-3.6c35.7,-20.7 58.2,-24 74.7,-22.2c4.5,10.5 7.8,18.6 10.2,24.9c-28.2,28.2 -40.2,26.4 -54.6,24.3c-15.9,-2.1 -34.2,-4.8 -71.1,19.2c-2.4,1.8 -5.4,2.1 -9.6,3c-10.2,1.5 -26.1,4.2 -57.3,24.3c-36.6,23.1 -51.9,27.3 -71.4,32.7c-12,3.3 -25.5,6.9 -45.6,15.3c-1.8,0.3 -3.3,1.8 -3.9,3.3c-27,70.5 -51.3,76.5 -80.7,65.4c-9.3,-3.6 -19.2,-9 -29.7,-14.4c-22.8,-12 -48.6,-25.5 -79.5,-29.4c-28.8,-3.6 -29.7,-15.9 -30.6,-32.7c-1.5,-27.6 -3.9,-64.5 -84.3,-99c-4.5,-1.8 -25.5,-22.2 -42.9,-42c-12.6,-13.8 -22.8,-26.7 -23.1,-30.9c0,-3 -2.7,-5.7 -5.7,-5.7Z" style="fill:#fcceae;"/><path d="M150.125,714.932c-8.7,-5.1 -18.3,-8.7 -27.6,-8.7c-0.9,0 -1.8,0 -2.7,0.3c-2.7,0 -8.4,-0.6 -15,-1.2c-11.4,-0.9 -25.2,-2.4 -34.2,0l-0.3,-0.6c0,-0.3 -0.3,-0.6 -0.6,-1.2c-48,-77.4 -43.2,-111.6 -36.3,-160.8c4.2,-27.9 9,-60.6 5.4,-108.6c-1.2,-20.4 15.3,-68.1 38.1,-115.2c21.3,-44.4 47.4,-87.3 68.7,-106.2c3.3,-2.7 7.8,-8.7 13.5,-16.2c14.7,-18.9 37.8,-48.6 53.7,-48.9c1.8,0.9 3.9,0.6 6,-1.2c0.3,-0.3 0.6,-0.3 0.9,-0.6c0.3,-0.6 0.6,-1.2 1.2,-1.8c3.6,-4.8 15.3,-19.5 24.3,-22.2c3,-0.9 5.7,0.9 7.8,7.5c2.4,9 7.8,11.4 14.7,9.6c8.7,-2.7 19.5,-15.6 30.9,-29.1c9.9,-11.4 20.1,-23.7 27.9,-28.5c3.3,-2.1 5.7,-2.4 6.9,-0.6c3,4.8 7.8,4.8 13.8,0.9c8.4,-5.1 23.1,-19.8 37.8,-34.8c18.3,-18.6 37.5,-37.8 39.3,-37.2c1.2,0.6 -3,1.8 -5.4,7.5c-7.2,19.5 -7.5,26.7 -2.1,28.8c3.9,1.5 6.9,-0.6 10.8,-3.6c2.4,-1.5 5.4,-3.6 8.4,-4.8c3.9,-1.5 8.4,-0.9 12,8.1c6.3,16.5 30.6,7.5 60.6,-3.9c38.7,-14.4 88.5,-33.3 112.5,-5.7c5.7,6.3 24.9,4.5 51.3,2.1c44.4,-3.9 111.3,-10.2 150.6,13.2c16.5,9.9 29.1,6.3 40.8,2.7c11.7,-3.3 22.2,-6.6 36.3,15.3c11.4,18 24.9,22.8 34.2,24c-1.2,0.6 -2.4,1.5 -3.6,2.7c-3.3,3 -7.8,6.9 -14.1,12.9c-2.4,2.1 -2.7,5.7 -0.6,8.4c0.9,0.6 1.8,1.2 3,1.5c8.1,2.4 14.1,3.6 18.3,4.5c-0.6,1.8 -0.9,4.5 -0.9,7.5c-0.3,3.3 2.4,6 5.7,6l1.8,0c6.3,-1.5 15.6,-2.4 26.4,-3c24,-1.8 55.2,-4.2 81.6,-17.1c-3.6,6.6 -6.6,12.6 -6.3,14.4c0.3,3.9 2.4,6 6.6,5.4c10.5,-0.9 13.8,-3.3 14.1,-2.7c0,0.3 -6.3,4.8 -12.3,9.6c-8.7,6.6 -17.4,13.5 -16.8,20.1c0.3,6 6.3,9.3 21.9,8.4c4.5,-0.3 6.3,0 6.3,0.9c1.5,18.9 -72.3,85.8 -79.5,92.4l-0.6,0.6c-2.4,2.1 -2.7,5.7 -0.6,8.4c0.6,0.3 1.2,0.9 1.8,1.2c6.3,3.3 12.3,3.9 17.4,3.6c-3.3,5.1 -7.2,11.1 -12,18.6c-1.2,2.4 -3,6.3 -4.5,10.2c-0.9,2.1 -1.2,4.2 -1.2,6c-0.9,-0.3 -1.8,-0.6 -2.7,-0.3c-1.8,0 -3,0.9 -3.9,2.1c-7.5,8.4 -45.6,3.6 -88.2,-6.9c-47.4,-12 -99.3,-31.2 -121.2,-48.3c-21,-16.5 -29.7,-14.1 -41.7,-11.1c-12,3 -28.2,6.9 -75,-17.1c-1.5,-0.9 -95.1,3.6 -154.8,18.6c-14.7,3.6 -27.6,8.1 -36.6,13.2c-10.8,6 -17.1,13.2 -16.2,22.2c0.6,6.9 6,14.4 17.4,21.9l0.3,1.2c-1.2,0.3 -2.1,0.9 -2.7,1.8c-68.7,72.6 -43.8,98.4 -2.1,142.2c14.4,15 31.2,32.4 46.2,54.9c17.7,26.4 6,43.2 -15.6,57.6c-10.5,6.9 -23.1,13.5 -36.6,20.4c-47.1,24.3 -99.3,51 -82.2,111.3c-12.6,-2.7 -25.8,-4.8 -39.9,-6.6c-4.8,-0.6 -34.5,2.7 -68.4,7.2c-45.9,6 -99.6,13.5 -109.5,15.6c-0.9,0.3 -1.8,0.6 -2.7,1.2Z" style="fill:#3b2e2b;"/><path d="M193.325,762.932c-1.8,-3.9 -4.5,-8.7 -7.8,-13.5l9,0.6c24.6,1.8 68.1,4.8 76.2,5.7c30.3,2.7 72.9,10.2 116.1,19.2c-9,18 -6.3,47.4 -3.9,72c1.5,15.3 3,28.5 0.9,33.9c-5.4,15.9 -6.9,32.4 -6.3,48.6c1.2,22.2 6.6,43.5 13.5,59.7c6.9,16.5 15.6,28.2 22.5,31.2c3.3,8.1 13.2,20.7 24.6,33.6c18.3,20.4 41.4,42.6 47.1,45c73.8,31.5 75.9,64.2 77.1,88.5c1.5,22.5 2.4,39 41.1,44.1c28.8,3.6 53.4,16.5 75.3,27.9c11.1,5.7 21.3,11.1 31.2,15c35.7,13.5 64.8,7.5 95.1,-69.6c18.6,-7.5 31.2,-11.1 42.3,-14.1c20.7,-5.4 36.9,-9.9 74.7,-34.2c29.4,-18.6 43.5,-21 52.8,-22.5c5.7,-0.9 9.6,-1.8 14.4,-4.8c33,-21.3 48.9,-19.2 63,-17.1c16.8,2.4 30.9,4.2 60.3,-24c0.9,2.4 1.5,4.5 2.1,6.3c3,11.1 3.9,14.1 29.7,55.8c-11.7,4.8 -23.1,14.1 -34.2,23.7c-9,7.8 -18,15.6 -26.7,19.8c-13.5,6.9 -27.3,4.2 -41.7,-24.9c-0.9,-1.8 -2.4,-3 -4.5,-3.3c-29.7,-4.8 -47.7,9.3 -68.7,25.5c-24.3,18.6 -52.8,40.5 -109.8,35.7l-1.8,0c-0.9,0 -1.8,0.6 -2.7,1.2c-0.6,0.3 -1.2,1.2 -1.8,2.1c-0.3,0.9 -0.6,2.1 -0.6,3.3c0.6,2.7 2.7,4.8 5.4,5.1l0.9,0.3c0,0.3 0,0.6 0.3,0.6c1.8,0.9 4.8,2.4 8.4,4.2c17.7,9.3 51.6,27.3 68.4,39c26.4,18.6 43.5,29.7 64.2,33c20.7,3.6 44.1,-1.2 82.8,-14.4c2.1,-0.9 9,-3.6 15.6,-7.2c-1.2,8.4 -1.5,17.7 -0.9,27.3c2.1,28.5 3.9,58.5 4.5,88.5c0.6,29.7 0.3,59.4 -2.4,87.6c-4.5,48.6 -61.5,55.5 -129,49.2c-36.9,-3.3 -76.8,-10.8 -113.1,-17.4c-42.9,-7.8 -81,-15 -105,-13.8c-51.3,2.1 -107.4,-16.2 -158.7,-45.6c-56.7,-32.7 -107.1,-78.9 -138.6,-125.7c-20.1,-30.3 -43.2,-49.5 -65.4,-68.4c-35.4,-29.4 -69,-57.6 -85.5,-127.5c-0.6,-3.6 -1.2,-7.8 -2.1,-12c-1.5,-8.1 -3,-16.5 -3.9,-20.4l0,-0.3c-0.3,-1.2 0.6,0.6 0.9,-0.6c3,-6.9 7.8,-19.2 4.8,-28.2c-20.1,-61.8 -19.8,-62.4 -15.3,-72.9c4.8,-11.1 13.8,-32.1 15,-114.3c3.6,-15.9 -3,-24.9 -8.7,-32.7c-3.3,-4.5 -6,-8.4 -3.6,-12.6c0.6,-1.2 0.9,-2.4 0.6,-3.9c-0.9,-5.7 -5.1,-15.9 -12,-27.6c-7.8,-14.1 -19.5,-30.3 -33,-42.3c-14.1,-12.9 -30,-21.6 -46.5,-18.9c-2.1,0.3 -4.5,0.9 -6.6,1.5Z" style="fill:#594b49;"/><path d="M183.425,771.332c0,1.2 0.6,2.4 1.2,3.3l0,0.3l0.3,0l0,0.3l0.3,0l0,0.3l0.3,0.3l0.3,0c0.9,0.9 2.4,1.5 3.6,1.5c0.9,0 1.8,-0.3 2.4,-0.6l4.2,-1.5c0.6,-0.3 1.2,-0.6 1.5,-1.2c1.5,-0.3 3,-0.6 4.2,-0.9c12.3,-1.8 25.2,5.1 36.6,15.9c12.6,11.1 23.4,26.4 30.9,39.6c5.4,9 9,17.1 10.2,21.9c-4.5,9.6 0.3,15.9 5.4,23.4c4.5,5.7 9.3,12.3 6.6,23.4l0,1.5c-1.5,80.4 -9.9,99.6 -14.4,110.4c-6,14.1 -6.3,15 15.3,81c1.5,5.1 -2.4,14.7 -4.5,20.1c-0.6,1.2 -1.2,2.4 -1.5,3.6c-3,3.3 -6,8.4 -9,13.8c-4.2,7.2 -9,15.6 -15.3,22.2c-17.7,18.9 -24.3,2.7 -96.9,-65.7c-36.3,-33.9 -73.2,-73.8 -99,-118.5c-25.5,-44.4 -39.9,-93.3 -31.2,-145.2l0.3,-2.7c6.6,-39.6 -8.1,-78.9 27,-102.3l0,0.3c0.3,0.9 1.2,1.8 2.1,2.4c2.7,2.1 6.3,1.2 8.1,-1.5c1.8,-2.4 18.3,-0.6 31.5,0.6c6.9,0.6 13.2,1.2 16.8,0.9l1.8,0c14.1,0 29.1,10.5 40.8,22.5c11.7,12.3 19.8,25.2 20.1,30.6Z" style="fill:#fcceae;"/><g><path d="M163.025,795.632c-15.6,-27.3 -31.8,-38.7 -46.5,-38.7c-11.7,0.3 -22.2,7.8 -30.3,20.4c-7.8,12 -13.5,28.5 -16.5,47.7c-8.1,52.8 5.1,126.3 57.3,175.5c4.8,4.5 9.3,12 14.4,21.3c11.7,19.5 27,46.2 63.9,72.3c16.8,12.3 29.1,15 36.9,11.4c6.9,-3 10.8,-9.9 11.7,-19.5c0.9,-7.8 0,-17.7 -2.4,-28.2c-7.5,-30.6 -27.9,-67.2 -48.3,-73.8c-3.3,-1.2 -6.3,-1.2 -8.7,-0.6c-3.9,0.9 -6.3,3.6 -7.5,7.2c-1.2,2.7 -1.2,6 -0.9,9.6c0.6,6 3,12.9 5.1,17.1l9.6,-5.7c-1.5,-3.3 -3.3,-8.1 -3.6,-12.3c-0.3,-1.5 -0.3,-3 0,-3.6c0.6,-0.3 1.8,-0.3 3.3,0.3c16.5,5.4 33.6,37.5 40.2,64.8c2.1,8.7 3,17.1 2.4,23.4c-0.6,4.8 -2.4,8.4 -5.1,9.6c-4.8,2.1 -13.5,-0.3 -27,-10.2c-34.8,-24.6 -49.5,-49.8 -60.3,-68.4c-5.7,-10.2 -10.5,-18.3 -16.8,-24.3c-48.6,-45.6 -60.6,-114.3 -53.1,-163.5c2.7,-17.1 7.8,-32.1 14.4,-42.3c6,-9.6 13.5,-15.3 21.9,-15.6c10.8,0 23.4,9.6 36.6,32.7l9.3,-6.6Z" style="fill-rule:nonzero;"/><path id="_1" serif:id="1" d="M116.525,754.532l3,0l6,1.2l6,2.4l1.8,0.9l1.5,0.6l1.5,1.2l1.5,0.9l6,4.8l1.5,1.5l1.8,1.5l1.5,1.5l4.5,5.4l1.5,2.1l1.5,1.8l1.5,2.1l1.5,2.4l1.5,2.1l3,4.8l1.5,2.7l-4.5,2.4l-1.2,-2.4l-3,-4.8l-4.5,-6.3l-1.2,-1.8l-1.5,-2.1l-1.5,-1.5l-1.5,-1.8l-1.5,-1.5l-1.2,-1.5l-1.5,-1.5l-1.5,-1.2l-1.2,-1.5l-1.5,-0.9l-1.5,-1.2l-1.2,-0.9l-3,-1.8l-1.2,-0.9l-1.5,-0.6l-1.2,-0.6l-1.5,-0.6l-1.2,-0.3l-1.5,-0.6l-3.6,-0.9l-3.9,0l0,-5.1Zm0,0l0,5.1c-1.5,0 -2.7,-1.2 -2.7,-2.4c0,-1.5 1.2,-2.7 2.7,-2.7Zm-32.4,21.6l0.6,-1.2l2.7,-3.6l0.6,-0.9l0.9,-1.2l0.9,-0.9l0.9,-1.2l1.8,-1.8l1.2,-0.9l0.9,-0.9l0.9,-0.6l0.9,-0.9l1.2,-0.9l1.8,-1.2l1.2,-0.6l0.9,-0.6l2.4,-1.2l0.9,-0.6l2.4,-0.6l0.9,-0.6l2.4,-0.6l1.2,0l1.2,-0.3l1.2,0l1.2,-0.3l1.2,0l0,5.1l-3,0l-0.9,0.3l-1.2,0.3l-0.9,0l-2.7,0.9l-0.9,0.6l-0.9,0.3l-1.2,0.6l-0.9,0.3l-3.6,2.4l-0.6,0.6l-0.9,0.6l-0.9,0.9l-0.9,0.6l-1.8,1.8l-0.6,0.9l-2.7,2.7l-0.6,0.9l-0.9,1.2l-0.6,1.2l-0.9,0.9l-0.6,1.2l-4.2,-2.7Zm0,0l4.2,2.7c-0.9,1.2 -2.4,1.5 -3.6,0.6c-1.2,-0.6 -1.5,-2.1 -0.6,-3.3Zm-16.8,48.3l0.9,-5.4l0.3,-1.5l0.6,-1.8l0.6,-3.6l0.3,-1.5l0.6,-1.8l0.3,-1.5l0.6,-1.8l0.3,-1.5l0.6,-1.8l0.3,-1.5l1.8,-4.5l0.3,-1.5l1.8,-4.5l0.6,-1.2l1.2,-3l0.6,-1.2l0.9,-1.2l0.6,-1.5l0.6,-1.2l0.9,-1.2l1.2,-2.4l0.9,-1.2l4.2,2.7l-0.9,1.2l-0.6,0.9l-1.8,3.6l-0.9,1.2l-1.2,2.4l-0.6,1.5l-0.6,1.2l-0.3,1.5l-0.6,1.2l-1.2,3l-0.6,1.2l-0.3,1.5l-1.2,3l-0.3,1.5l-0.6,1.5l-0.3,1.8l-0.6,1.5l-0.3,1.5l-0.3,1.8l-0.6,1.5l-0.3,1.8l-0.3,1.5l-0.6,3.6l-0.3,1.5l-0.6,3.6l-5.1,-0.9Zm0,0l5.1,0.9c-0.3,1.2 -1.5,2.4 -3,2.1c-1.2,-0.3 -2.1,-1.5 -2.1,-3Zm57.9,177.9l-4.8,-4.8l-4.5,-4.8l-4.5,-5.1l-4.2,-5.1l-3.9,-5.1l-3.9,-5.4l-3.3,-5.4l-6.6,-11.4l-2.7,-5.4l-2.7,-6l-2.7,-5.7l-2.4,-5.7l-2.1,-6l-1.8,-5.7l-1.8,-6l-1.5,-6l-1.5,-5.7l-1.2,-6l-0.9,-6l-0.9,-5.7l-0.9,-6l-0.6,-5.7l-0.6,-11.4l0,-16.8l0.3,-5.4l0.6,-5.1l0.6,-5.4l0.6,-5.1l5.1,0.9l-0.9,4.8l-0.6,5.1l-0.3,5.1l-0.6,10.8l0,5.4l0.3,5.4l0.6,11.4l0.6,5.4l0.6,5.7l0.9,6l0.9,5.7l1.2,5.7l3,11.4l1.8,6l1.8,5.7l2.1,5.7l4.8,11.4l2.4,5.4l3,5.7l3,5.4l3.3,5.4l3.3,5.1l3.6,5.4l3.9,5.1l4.2,4.8l4.2,5.1l9.3,9.3l-3.6,3.6Zm0,0l3.6,-3.6c0.9,0.9 0.9,2.4 0,3.6c-0.9,0.9 -2.7,0.9 -3.6,0Zm14.1,20.7l-0.3,-0.9l-0.6,-0.9l-0.6,-0.6l-0.3,-0.9l-0.6,-0.9l-0.3,-0.9l-0.6,-0.6l-0.3,-0.9l-0.6,-0.6l-0.3,-0.9l-0.6,-0.6l-0.3,-0.6l-0.6,-0.9l-0.3,-0.6l-0.6,-0.6l-0.3,-0.9l-0.6,-0.6l-0.3,-0.6l-0.6,-0.6l-0.6,-1.2l-0.6,-0.6l-0.3,-0.6l-0.9,-0.9l-0.3,-0.6l-1.8,-1.8l-0.3,-0.6l-0.6,-0.3l3.6,-3.6l0.9,0.9l0.3,0.6l0.6,0.6l0.6,0.3l0.3,0.6l0.6,0.6l0.3,0.6l0.6,0.6l0.3,0.6l1.2,1.2l0.3,0.9l0.6,0.6l0.3,0.6l0.6,0.6l0.3,0.9l0.6,0.6l0.3,0.6l0.6,0.9l0.3,0.6l0.6,0.9l0.3,0.6l0.6,0.9l0.3,0.6l1.2,1.8l0.3,0.6l0.6,0.9l0.3,0.9l1.2,1.8l-4.5,2.4Zm0,0l4.5,-2.4c0.6,0.9 0.3,2.7 -0.9,3.3c-1.2,0.6 -2.7,0.3 -3.6,-0.9Zm64.5,73.2l-3.6,-2.4l-3.3,-2.7l-9,-7.2l-3,-2.7l-2.7,-2.4l-2.4,-2.4l-2.7,-2.4l-4.8,-4.8l-2.1,-2.7l-2.4,-2.4l-1.8,-2.4l-2.1,-2.4l-1.8,-2.1l-2.1,-2.4l-1.8,-2.4l-1.5,-2.4l-1.8,-2.1l-1.5,-2.4l-3,-4.2l-1.2,-2.4l-1.5,-2.1l-1.2,-2.1l-1.5,-2.1l-1.2,-1.8l-1.2,-2.1l-0.9,-2.1l-2.4,-3.6l4.5,-2.4l0.9,1.8l1.2,1.8l1.2,2.1l1.2,1.8l2.4,4.2l1.2,1.8l1.5,2.1l1.2,2.1l1.5,2.4l3,4.2l1.5,2.4l1.8,2.1l1.8,2.4l1.8,2.1l3.6,4.8l2.1,2.1l4.2,4.8l7.2,7.2l2.7,2.4l2.4,2.4l3,2.4l2.7,2.4l3,2.4l3.3,2.4l3,2.4l3.3,2.4l-2.7,4.2Zm0,0l2.7,-4.2c1.2,0.9 1.5,2.4 0.6,3.6c-0.6,1.2 -2.1,1.5 -3.3,0.6Zm39.6,11.7l-2.7,0.9l-1.2,0.3l-0.9,0l-0.9,0.3l-5.4,0l-1.2,-0.3l-1.2,0l-0.9,-0.3l-1.2,-0.3l-1.5,-0.3l-1.2,-0.6l-2.4,-0.6l-1.2,-0.6l-1.5,-0.6l-1.2,-0.6l-1.5,-0.6l-1.5,-0.9l-1.2,-0.6l-6,-3.6l-1.8,-1.2l-1.5,-0.9l-1.5,-1.2l2.7,-4.2l1.8,1.2l1.5,1.2l3,1.8l1.2,0.9l1.5,0.9l1.5,0.6l1.2,0.9l1.2,0.6l1.5,0.6l1.2,0.6l1.2,0.3l1.2,0.6l1.2,0.3l0.9,0.6l2.4,0.6l0.9,0l0.9,0.3l1.2,0.3l6,0l0.6,-0.3l0.6,0l0.9,-0.3l1.2,-0.6l2.1,4.8Zm0,0l-2.1,-4.8c1.2,-0.3 2.7,0.3 3.3,1.5c0.6,1.2 0,2.7 -1.2,3.3Zm13.2,-21.6l-0.3,1.2l0,0.9l-0.3,0.9l0,0.6l-0.6,1.8l0,0.9l-0.3,0.9l-0.3,0.6l-0.6,1.8l-0.3,0.6l-0.3,0.9l-0.3,0.6l-0.3,0.9l-0.6,0.6l-0.3,0.6l-0.6,0.6l-0.3,0.9l-0.6,0.6l-0.3,0.6l-0.6,0.6l-0.6,0.3l-1.8,1.8l-0.6,0.3l-0.6,0.6l-0.6,0.3l-0.9,0.3l-0.6,0.6l-0.6,0.3l-2.1,-4.8l0.6,0l0.6,-0.3l0.3,-0.3l1.2,-0.6l2.4,-2.4l0.3,-0.6l0.6,-0.3l0.6,-1.2l0.3,-0.3l1.5,-3l0.3,-0.9l0,-0.6l0.6,-1.2l0,-0.9l0.3,-0.6l0,-0.9l0.3,-0.6l0,-0.9l0.3,-0.9l0,-0.6l5.1,0.3Zm0,0l-5.1,-0.3c0.3,-1.5 1.5,-2.4 2.7,-2.4c1.5,0.3 2.4,1.5 2.4,2.7Zm-2.7,-29.1l0.3,1.2l0,0.9l0.3,0.9l0.3,1.2l0,0.9l0.6,1.8l0,1.2l0.3,0.9l0,0.9l0.3,0.9l0,0.9l0.3,0.9l0,2.1l0.3,0.9l0,3.6l0.3,0.9l0,6l-0.3,0.6l0,2.4l-5.1,-0.3l0,-0.9l0.3,-0.6l0,-9.6l-0.3,-0.9l0,-1.8l-0.3,-0.9l0,-1.8l-0.3,-0.9l0,-0.9l-0.3,-0.9l0,-0.9l-0.3,-0.9l0,-0.9l-0.3,-0.9l0,-0.9l-0.6,-1.8l-0.3,-1.2l0,-0.9l4.8,-1.2Zm0,0l-4.8,1.2c-0.3,-1.2 0.3,-2.7 1.8,-3c1.2,-0.3 2.7,0.6 3,1.8Zm-49.8,-75.6l4.2,1.8l1.8,1.2l4.2,2.4l1.8,1.8l2.1,1.5l3.9,3.9l5.4,6.3l1.8,2.4l1.8,2.7l1.5,2.4l1.8,2.7l3,5.4l1.8,2.7l1.2,2.7l3,6l1.2,3l1.5,3l1.2,3l0.9,3l2.4,6l1.8,6l0.6,3l0.9,2.7l-4.8,1.2l-0.9,-2.7l-0.6,-3l-0.9,-2.7l-0.9,-3l-1.2,-3l-0.9,-3l-1.2,-2.7l-2.4,-6l-1.2,-2.7l-1.5,-3l-1.2,-2.7l-6,-10.8l-1.8,-2.4l-1.5,-2.4l-1.8,-2.4l-1.5,-2.1l-1.8,-2.4l-1.8,-1.8l-1.8,-2.1l-1.5,-1.8l-1.8,-1.5l-1.8,-1.8l-5.4,-3.6l-3.6,-1.8l-1.5,-0.6l1.5,-4.8Zm0,0l-1.5,4.8c-1.5,-0.3 -2.1,-1.8 -1.8,-3.3c0.6,-1.2 1.8,-1.8 3.3,-1.5Zm-10.2,-0.6l0.3,-0.3l1.5,0l0.3,-0.3l2.7,0l0.3,0.3l1.8,0l0.6,0.3l0.9,0l0.3,0.3l0.6,0l0.6,0.3l0.3,0l-1.5,4.8l-0.3,0l-0.3,-0.3l-0.9,0l-0.3,-0.3l-1.2,0l0,-0.3l-4.2,0l0,0.3l-0.3,0l-1.2,-4.8Zm0,0l1.2,4.8c-1.2,0.3 -2.7,-0.6 -3,-1.8c-0.3,-1.5 0.6,-2.7 1.8,-3Zm-9.3,8.7l0,-0.3l0.3,-0.6l0.3,-0.3l0,-0.3l0.3,-0.3l0,-0.6l0.6,-0.6l0,-0.3l0.6,-0.6l0.3,-0.6l0.9,-0.9l0,-0.3l0.3,-0.3l0.6,-0.3l0.3,0l1.2,-1.2l0.3,0l0.6,-0.3l0.3,-0.3l0.3,0l0.6,-0.3l0.3,0l0.3,-0.3l0.9,0l1.2,4.8l-0.6,0l-0.3,0.3l-0.3,0l-0.3,0.3l-0.6,0l0,0.3l-0.3,0l-0.6,0.6l-0.3,0l0,0.3l-0.3,0l0,0.3l-0.3,0l-0.3,0.3l0,0.3l-0.3,0l0,0.3l-0.3,0.3l0,0.3l-0.3,0l0,0.6l-0.3,0.3l0,0.3l-0.3,0.3l0,0.6l-4.8,-1.8Zm0,0l4.8,1.8c-0.6,1.2 -2.1,1.8 -3.3,1.5c-1.2,-0.6 -2.1,-2.1 -1.5,-3.3Zm-0.9,10.8l-0.3,-0.3l0,-5.7l0.3,-0.3l0,-1.5l0.3,-0.6l0,-0.9l0.3,-0.3l0,-0.6l0.3,-0.3l0,-0.3l4.8,1.8l-0.3,0l0,0.9l-0.3,0l0,1.5l-0.3,0l0,6l-4.8,0.6Zm0,0l4.8,-0.6c0.3,1.5 -0.9,2.7 -2.1,2.7c-1.5,0.3 -2.7,-0.9 -2.7,-2.1Zm8.7,18.9l-3.3,-0.9l-0.3,-0.3l-0.3,-0.6l-0.3,-0.3l0,-0.6l-0.3,-0.6l-0.3,-0.3l0,-0.6l-0.3,-0.6l-0.3,-0.3l-0.3,-0.6l0,-0.6l-0.6,-1.2l0,-0.6l-0.3,-0.6l0,-0.6l-0.3,-0.6l-0.3,-0.3l0,-0.6l-0.3,-0.9l0,-0.6l-0.3,-0.6l0,-0.6l-0.3,-0.6l0,-0.6l-0.3,-0.6l0,-1.2l-0.3,-0.6l0,-1.8l4.8,-0.6l0,0.6l0.3,0.6l0,1.5l0.3,0.6l0,1.2l0.3,0.6l0,0.6l0.3,0.3l0,0.6l0.3,0.6l0,0.6l0.3,0.6l0,0.6l0.3,0.3l0.3,0.6l0,0.6l0.3,0.6l0,0.3l0.6,1.2l0,0.3l0.3,0.6l0.3,0.3l0,0.6l0.3,0.3l0,0.6l0.6,0.6l0,0.6l-3.3,-1.2l2.4,4.2Zm-3.3,-0.9l4.2,-2.1c0.6,1.2 0.3,2.7 -0.9,3.3c-1.2,0.6 -2.7,0 -3.3,-1.2Zm10.5,-9l3.3,0.9l-0.9,3.3l-9.6,5.7l-2.4,-4.2l9.6,-5.7Zm2.4,4.2l-2.4,-4.2c0.9,-0.9 2.7,-0.6 3.3,0.6c0.6,1.2 0.3,2.7 -0.9,3.6Zm-2.4,-14.7l0,1.5l0.3,0.3l0,1.2l0.3,0.3l0,0.9l0.3,0.3l0,0.9l0.3,0.3l0,0.3l0.3,0.3l0,0.9l0.3,0.3l0,0.3l0.3,0.3l0,0.6l0.3,0.3l0,0.3l0.3,0.3l0,0.3l0.3,0.3l0,0.6l0.3,0.3l0,0.3l-4.2,2.1l-0.6,-0.6l0,-0.3l-0.3,-0.3l0,-0.3l-0.3,-0.6l0,-0.3l-0.3,-0.3l0,-0.3l-0.3,-0.6l0,-0.3l-0.3,-0.3l0,-0.6l-0.3,-0.3l0,-0.3l-0.3,-0.6l0,-0.3l-0.3,-0.6l0,-0.9l-0.3,-0.3l0,-0.9l-0.3,-0.6l0,-0.9l-0.3,-0.3l0,-1.2l-0.3,-0.6l0,-0.3l5.1,-0.6Zm0,0l-5.1,0.6c0,-1.5 0.9,-2.7 2.4,-3c1.2,0 2.4,0.9 2.7,2.4Zm-1.5,-0.9l1.5,-1.8l0,2.7l-5.1,0.6l0,-3.9l0.3,-0.3l0,-0.6l1.5,-1.5l1.8,4.8Zm1.5,-1.8l-4.8,-1.5c0.6,-1.2 2.1,-2.1 3.3,-1.5c1.2,0.3 1.8,1.8 1.5,3Zm-3,-3l1.5,4.8l-1.8,-4.8l0.3,0Zm1.5,4.8l-1.5,-4.8c1.2,-0.6 2.7,0.3 3,1.5c0.3,1.2 -0.3,2.7 -1.5,3.3Zm1.8,0.3l-0.6,0l0,-0.3l-1.5,0l-1.2,-4.8l0.3,-0.3l2.4,0l0,0.3l1.2,0l0.3,0.3l0.6,0l-1.5,4.8Zm0,0l1.5,-4.8c1.2,0.6 2.1,1.8 1.5,3.3c-0.3,1.2 -1.8,1.8 -3,1.5Zm38.4,63l-0.6,-2.7l-0.6,-2.4l-0.9,-2.7l-0.9,-2.4l-0.6,-2.7l-0.9,-2.4l-1.2,-2.7l-0.9,-2.7l-0.9,-2.4l-1.2,-2.4l-1.2,-2.7l-4.8,-9.6l-1.5,-2.1l-1.2,-2.1l-1.5,-2.4l-1.2,-1.8l-1.5,-2.1l-1.2,-1.8l-3,-3.6l-4.2,-4.2l-1.5,-1.2l-1.5,-0.9l-1.5,-1.2l-1.2,-0.6l-1.5,-0.6l-1.2,-0.6l1.5,-4.8l1.8,0.6l1.5,0.9l1.8,0.9l1.8,1.2l1.5,1.2l1.8,1.5l1.5,1.2l1.5,1.8l3.3,3.3l1.5,2.1l1.5,1.8l1.5,2.1l1.2,2.1l1.5,2.4l1.5,2.1l1.2,2.4l1.5,2.4l1.2,2.4l1.2,2.7l1.2,2.4l1.2,2.7l1.2,2.4l0.9,2.7l1.2,2.7l3.6,10.8l0.9,2.4l1.2,5.4l-4.8,1.2Zm0,0l4.8,-1.2c0.3,1.2 -0.6,2.7 -1.8,3c-1.2,0.3 -2.7,-0.6 -3,-1.8Zm2.1,22.5l0.3,-0.6l0,-8.4l-0.3,-0.6l0,-2.1l-0.3,-0.6l0,-1.5l-0.3,-0.9l0,-0.9l-0.3,-0.6l0,-0.9l-0.3,-0.6l0,-0.9l-0.3,-0.9l0,-0.6l-0.3,-0.9l0,-0.9l-0.3,-0.6l4.8,-1.2l0.3,0.9l0,0.6l0.6,1.8l0,0.9l0.3,0.9l0,0.6l0.3,0.9l0,0.9l0.3,0.6l0,1.8l0.3,0.6l0,1.8l0.3,0.6l0,2.4l0.3,0.6l0,6.3l-0.3,0.6l0,1.5l-5.1,-0.6Zm0,0l5.1,0.6c-0.3,1.2 -1.5,2.1 -2.7,2.1c-1.5,-0.3 -2.4,-1.5 -2.4,-2.7Zm-3.3,7.5l0.3,0l1.5,-1.5l0,-0.3l0.3,-0.3l0,-0.3l0.3,-0.3l0,-0.6l0.3,-0.3l0,-0.6l0.3,-0.3l0,-1.2l0.3,-0.3l0,-1.5l5.1,0.6l0,0.9l-0.3,0.3l0,1.2l-0.3,0.3l0,0.9l-0.3,0.6l0,0.3l-0.3,0.3l0,0.6l-0.3,0.3l0,0.6l-0.3,0.3l0,0.3l-0.3,0.3l-0.3,0.6l0,0.3l-3,3l-0.3,0l-0.3,0.3l-0.6,0.3l-1.8,-4.8Zm0,0l1.8,4.8c-1.2,0.3 -2.7,0 -3.3,-1.5c-0.3,-1.2 0,-2.7 1.5,-3.3Zm-24.9,-9.9l3.6,2.7l1.2,0.6l1.2,0.9l1.2,0.6l0.9,0.6l1.2,0.6l0.9,0.6l0.9,0.3l0.9,0.6l0.9,0.3l0.9,0.6l1.8,0.6l0.6,0.3l0.9,0.3l0.6,0.3l0.9,0l0.6,0.3l0.6,0l0.6,0.3l3,0l0.3,-0.3l0.9,0l0.3,-0.3l1.8,4.8l-0.6,0l-1.2,0.6l-1.5,0l-0.6,0.3l-1.5,0l-0.9,-0.3l-1.5,0l-0.9,-0.3l-0.6,-0.3l-0.9,0l-2.7,-0.9l-0.9,-0.6l-0.9,-0.3l-1.2,-0.3l-1.8,-1.2l-2.4,-1.2l-0.9,-0.6l-2.4,-1.2l-1.2,-0.9l-1.2,-0.6l-3.6,-2.7l2.7,-4.2Zm0,0l-2.7,4.2c-1.2,-0.9 -1.5,-2.4 -0.6,-3.6c0.6,-0.9 2.4,-1.2 3.3,-0.6Zm-59.4,-67.8l1.2,1.8l0.9,1.8l1.2,1.8l0.9,2.1l2.4,3.6l2.4,4.2l1.5,1.8l1.2,2.1l6,8.4l1.8,2.1l1.5,2.1l1.8,2.4l1.8,2.1l2.1,2.1l1.8,2.4l2.1,2.1l2.1,2.4l2.4,2.1l2.1,2.4l2.7,2.1l2.4,2.4l2.7,2.1l5.4,4.8l3,2.1l3,2.4l3,2.1l-2.7,4.2l-3.3,-2.4l-3,-2.4l-3,-2.1l-3,-2.4l-8.1,-7.2l-2.4,-2.1l-4.8,-4.8l-2.1,-2.4l-2.1,-2.1l-2.1,-2.4l-1.8,-2.1l-2.1,-2.4l-1.8,-2.1l-1.8,-2.4l-1.5,-2.1l-1.8,-2.1l-1.5,-2.4l-1.5,-2.1l-1.2,-2.1l-3,-4.2l-1.2,-1.8l-1.2,-2.1l-1.2,-1.8l-1.2,-2.1l-1.2,-1.8l-0.9,-1.8l-1.2,-1.8l-0.9,-1.8l4.2,-2.7Zm0,0l-4.2,2.7c-0.6,-1.2 -0.3,-2.7 0.9,-3.6c1.2,-0.6 2.7,-0.3 3.3,0.9Zm-17.1,-24.6l2.4,2.4l0.6,0.9l0.3,0.6l1.2,1.2l0.6,0.9l1.2,1.2l0.3,0.9l0.6,0.6l0.6,0.9l0.6,0.6l0.3,0.9l0.6,0.6l1.2,1.8l0.3,0.6l1.2,1.8l0.3,0.9l0.6,0.9l0.6,0.6l0.6,0.9l0.3,0.9l1.8,2.7l0.3,0.9l0.6,0.9l-4.2,2.7l-1.2,-1.8l-0.3,-0.9l-1.8,-2.7l-0.3,-0.9l-1.2,-1.8l-0.3,-0.6l-1.2,-1.8l-0.3,-0.6l-0.6,-0.9l-0.6,-0.6l-0.3,-0.9l-0.6,-0.6l-0.6,-0.9l-0.3,-0.6l-0.6,-0.6l-0.6,-0.9l-0.3,-0.6l-1.2,-1.2l-0.3,-0.6l-1.8,-1.8l-0.3,-0.6l-1.8,-1.8l3.6,-3.6Zm0,0l-3.6,3.6c-0.9,-0.9 -0.9,-2.4 0,-3.3c0.9,-1.2 2.4,-1.2 3.6,-0.3Zm-52.5,-161.4l-0.6,4.8l-0.6,4.5l-0.3,5.1l-0.6,9.6l0,5.1l0.3,5.1l0,5.4l0.6,5.1l0.3,5.4l0.9,5.1l0.6,5.4l0.9,5.4l2.4,10.8l3,10.8l1.8,5.1l4.2,10.8l2.1,5.1l2.4,5.4l5.4,10.2l3,4.8l3.3,5.1l3.3,4.8l3.6,4.8l7.8,9l4.2,4.5l4.5,4.2l-3.6,3.6l-4.5,-4.2l-4.2,-4.8l-4.2,-4.5l-3.9,-4.8l-3.6,-4.8l-3.6,-5.1l-3.3,-5.1l-3,-5.1l-3,-5.4l-2.7,-5.1l-4.8,-10.8l-2.1,-5.4l-3.6,-10.8l-1.8,-5.7l-1.5,-5.4l-1.2,-5.4l-1.2,-5.7l-1.8,-10.8l-0.6,-5.7l-0.6,-5.4l-0.3,-5.1l-0.3,-5.4l0,-15.6l0.3,-5.1l0.6,-4.8l0.3,-4.8l0.9,-4.8l4.8,0.6Zm0,0l-4.8,-0.6c0,-1.5 1.5,-2.4 2.7,-2.1c1.5,0.3 2.4,1.5 2.1,2.7Zm14.1,-41.4l-0.6,0.9l-0.6,1.2l-1.2,1.8l-1.2,2.4l-0.3,0.9l-1.8,3.6l-0.3,1.2l-1.2,2.4l-0.3,1.2l-0.6,1.2l-0.3,1.5l-0.6,1.2l-0.3,1.2l-0.6,1.5l-0.3,1.5l-0.3,1.2l-0.6,1.5l-3,15l-4.8,-0.6l0.3,-1.8l0,-1.5l0.3,-1.5l0.3,-1.8l0.3,-1.5l0.6,-1.5l1.2,-6l0.6,-1.5l0.3,-1.5l0.6,-1.5l0.3,-1.5l0.3,-1.2l0.6,-1.5l0.6,-1.2l0.3,-1.5l0.6,-1.2l0.6,-1.5l0.3,-1.2l3,-6l0.3,-1.2l0.6,-1.2l0.9,-0.9l0.6,-1.2l0.6,-0.9l0.6,-1.2l4.2,2.7Zm0,0l-4.2,-2.7c0.6,-1.2 2.4,-1.5 3.3,-0.6c1.2,0.6 1.5,2.1 0.9,3.3Zm19.8,-14.1l-2.7,0l-0.6,0.3l-0.6,0l-1.2,0.6l-0.9,0.3l-3.6,1.8l-0.6,0.6l-0.6,0.3l-0.6,0.6l-0.9,0.6l-4.2,4.2l-0.6,0.9l-0.6,0.6l-0.3,0.9l-0.6,0.9l-0.6,0.6l-0.6,0.9l-4.2,-2.7l2.4,-3.6l0.6,-0.6l0.6,-0.9l1.5,-1.5l0.6,-0.9l0.9,-0.6l0.6,-0.6l0.6,-0.9l0.9,-0.6l1.2,-1.2l0.9,-0.6l0.6,-0.3l1.8,-1.2l0.6,-0.3l0.9,-0.3l0.6,-0.6l2.7,-0.9l0.6,-0.3l0.9,0l0.9,-0.3l0.9,0l0.9,-0.3l1.5,0l0.3,5.1Zm0,0l-0.3,-5.1c1.5,0 2.7,1.2 2.7,2.4c0,1.5 -1.2,2.4 -2.4,2.7Zm37.8,32.1l-3.6,-0.9l-2.4,-4.2l-6,-9l-0.9,-1.5l-1.2,-1.5l-1.2,-1.2l-1.2,-1.5l-2.4,-2.4l-0.9,-1.2l-2.4,-1.8l-0.9,-0.9l-1.2,-0.9l-0.9,-0.9l-1.2,-0.6l-0.9,-0.6l-1.2,-0.6l-0.9,-0.6l-1.2,-0.3l-0.9,-0.6l-1.8,-0.6l-0.9,0l-0.9,-0.3l-2.7,0l-0.3,-5.1l2.4,0l1.2,0.3l1.2,0l1.2,0.3l1.2,0.6l2.4,0.6l2.4,1.2l1.2,0.9l1.2,0.6l4.8,3.6l1.2,1.2l1.2,0.9l1.2,1.2l1.2,1.5l2.7,2.7l2.4,3l1.2,1.8l1.2,1.5l2.4,3.6l1.2,2.1l1.5,2.1l2.4,4.2l-3.6,-0.9l2.7,4.2Zm-3.6,-0.9l4.5,-2.4c0.6,1.2 0.3,2.7 -0.9,3.3c-1.2,0.6 -2.7,0.3 -3.6,-0.9Zm10.2,-9.9l3.6,0.9l-0.9,3.3l-9.3,6.6l-2.7,-4.2l9.3,-6.6Zm2.7,4.2l-2.7,-4.2c1.2,-0.6 2.7,-0.3 3.3,0.6c0.9,1.2 0.6,2.7 -0.6,3.6Z" style="fill-rule:nonzero;"/></g><path d="M910.325,857.432c-33,4.5 -77.1,-25.5 -114,12.9" style="fill:none;stroke:#000;stroke-width:9.98px;"/><path d="M1159.62,826.232c-21,3 -49.5,-16.2 -73.2,8.4" style="fill:none;stroke:#000;stroke-width:9.98px;"/><path d="M842.403,852.241c-23.475,3.255 -41.37,14.282 -39.938,24.611c1.431,10.329 21.652,16.072 45.127,12.818c23.474,-3.254 41.369,-14.282 39.938,-24.611c-1.432,-10.328 -21.653,-16.072 -45.127,-12.818Z" style="stroke:#000;stroke-width:3.57px;"/><g><path d="M1111.03,825.032c-12,1.5 -20.7,9.6 -19.5,18.3c1.2,8.4 12,13.8 23.7,12.3c12,-1.8 20.7,-9.9 19.5,-18.3c-1.2,-8.7 -11.7,-14.1 -23.7,-12.3Z"/><path id="_11" serif:id="1" d="M1090.33,843.332l0,-3.3l0.3,-0.9l0,-0.9l0.6,-1.8l0.6,-0.6l0.3,-0.9l0.6,-0.9l0.3,-0.6l0.6,-0.6l0.6,-0.9l0.6,-0.6l0.9,-0.6l0.6,-0.9l0.6,-0.6l1.8,-1.2l0.9,-0.3l1.8,-1.2l0.9,-0.3l0.9,-0.6l1.2,-0.3l0.9,-0.3l1.2,-0.3l0.9,-0.3l2.4,-0.6l1.2,0l0.3,2.4l-1.2,0l-0.9,0.3l-1.2,0.3l-2.7,0.9l-1.2,0.3l-0.9,0.3l-0.6,0.6l-0.9,0.3l-0.9,0.6l-0.9,0.3l-1.2,1.2l-0.9,0.6l-1.8,1.8l-0.3,0.6l-0.6,0.6l-0.3,0.6l-0.6,0.6l-0.3,0.6l-0.3,0.9l-0.6,1.2l0,0.6l-0.3,0.9l0,2.7l-2.4,0.3Zm25.2,13.5l-2.4,0l-1.2,0.3l-2.1,0l-1.2,-0.3l-2.1,0l-0.9,-0.3l-1.2,-0.3l-1.8,-0.6l-1.2,-0.3l-1.8,-0.6l-0.9,-0.6l-0.6,-0.3l-1.8,-1.2l-0.6,-0.3l-0.6,-0.6l-0.9,-0.6l-0.6,-0.9l-0.6,-0.6l-0.3,-0.6l-0.6,-0.9l-0.3,-0.6l-0.6,-0.9l-0.3,-0.6l-0.3,-0.9l0,-0.9l-0.3,-0.9l2.4,-0.3l0.3,0.6l0,0.9l1.2,2.4l0.6,0.6l0.3,0.6l0.6,0.6l0.3,0.6l0.6,0.3l1.2,1.2l0.9,0.3l0.6,0.6l0.6,0.3l1.8,0.6l0.6,0.6l0.9,0.3l0.9,0l1.8,0.6l0.9,0l1.2,0.3l7.2,0l0.3,2.4Zm20.4,-19.8l0.3,0.9l0,1.8l-0.3,0.9l0,0.9l-0.3,0.6l-0.9,2.7l-0.6,0.6l-0.3,0.9l-0.6,0.6l-0.6,0.9l-1.2,1.2l-0.6,0.9l-0.6,0.6l-1.8,1.2l-0.6,0.6l-0.9,0.6l-0.9,0.3l-0.9,0.6l-0.9,0.3l-1.2,0.6l-0.9,0.3l-1.2,0.3l-0.9,0.6l-1.2,0l-0.9,0.3l-2.4,0.6l-0.3,-2.4l0.9,-0.3l1.2,-0.3l0.9,-0.3l1.2,0l0.9,-0.3l0.9,-0.6l2.7,-0.9l0.9,-0.6l0.6,-0.3l1.8,-1.2l0.6,-0.6l0.6,-0.3l2.4,-2.4l0.3,-0.9l0.6,-0.6l0.9,-1.8l0.3,-0.9l0.6,-1.2l0,-3.6l2.4,-0.3Zm-24.9,-13.2l0.9,-0.3l6.9,0l0.9,0.3l1.2,0l0.9,0.3l1.2,0.3l3.6,1.2l0.9,0.6l0.9,0.3l0.9,0.6l0.6,0.6l0.9,0.6l3,3l0.3,0.9l0.6,0.6l0.6,1.8l0.3,0.6l0.3,0.9l0,0.9l-2.4,0.3l0,-0.6l-0.3,-0.6l-0.3,-0.9l-1.5,-3l-1.2,-1.2l-0.6,-0.3l-1.2,-1.2l-0.6,-0.3l-0.6,-0.6l-0.9,-0.3l-0.6,-0.3l-5.4,-1.8l-0.9,0l-0.9,-0.3l-6.3,0l-0.9,0.3l-0.3,-2.4Z" style="fill-rule:nonzero;"/></g></g><path d="M971.225,336.332c8.4,42.9 42.9,97.5 77.4,152.1c36,56.4 71.7,113.1 76.2,153c0.3,3 0.9,5.4 1.5,7.5c-6.6,2.1 -14.7,3.3 -23.7,4.8c-40.2,6.6 -91.8,15 -96.3,87.3c-0.3,9.6 2.7,13.8 8.7,14.1c6,0.3 13.8,-6 23.7,-14.4c13.2,-10.8 30.6,-25.5 47.4,-28.2c4.5,-0.9 19.8,-8.7 33.9,-15.6c2.7,-1.2 5.1,-2.7 7.2,-3.9l-2.1,3.6c-1.5,3 -0.6,6.6 2.1,8.1c0.3,0.3 0.9,0.6 1.2,0.6c6.6,2.4 22.8,5.4 42.3,9c-43.2,5.1 -72.6,19.8 -95.7,31.5c-15.3,7.8 -27.9,14.1 -39,14.1c-26.4,0.6 -59.7,-4.5 -96,-9.6c-77.7,-11.4 -169.2,-24.6 -241.2,6.9c-36.6,16.2 -49.5,10.8 -65.4,4.5c-9.9,-4.2 -20.7,-8.4 -37.5,-9.6c-81.6,-6 -129.6,-19.5 -174,-31.8c-15.6,-4.2 -30.6,-8.4 -46.2,-12c-19.8,-55.5 29.4,-81 74.1,-103.8c13.5,-6.9 26.7,-13.8 37.8,-21c27.3,-18.6 41.7,-39.9 18.6,-74.4c-15.6,-23.4 -32.7,-41.1 -47.4,-56.4c-36.3,-38.1 -58.2,-60.9 0,-123.6c1.8,0.3 3.3,0 4.5,-0.6c3,-1.2 4.2,-3.3 4.5,-6.3c0.3,-1.5 0,-3.3 -0.6,-5.1c-0.6,-2.1 -2.1,-5.1 -3.3,-7.2c-0.3,-1.8 -1.2,-3.3 -2.7,-4.2c-8.1,-5.1 -11.7,-9.3 -12,-12.9c-0.3,-3.6 3.6,-7.2 9.9,-10.8c8.4,-4.5 20.1,-8.4 34.2,-12c57.3,-14.4 145.2,-20.1 146.4,-19.5c50.7,26.1 69.3,21.3 83.1,18c9,-2.1 15.3,-3.9 31.5,9c23.1,18 76.8,38.1 125.7,50.4c37.8,9.6 73.5,13.8 91.2,8.4Zm-796.2,442.8c0,1.2 0.3,2.4 0.9,3.3l0.3,0l0,0.3l0.3,0l0,0.3l0.3,0l0,0.3l0.3,0l0,0.3c1.2,0.9 2.4,1.2 3.9,1.2c0.9,0 1.5,0 2.4,-0.3l3.9,-1.8c0.6,0 1.2,-0.6 1.8,-0.9c1.5,-0.6 2.7,-0.9 4.2,-0.9c12,-2.1 24.9,5.1 36.6,15.6c12.3,11.4 23.1,26.4 30.9,39.6c5.1,9.3 8.7,17.4 9.9,21.9c-4.2,9.9 0.3,16.2 5.7,23.4c4.2,5.7 9.3,12.6 6.6,23.4c0,0.6 -0.3,1.2 -0.3,1.8c-1.2,80.1 -9.6,99.6 -14.1,110.1c-6.3,14.4 -6.6,15.3 15,81.3c1.8,4.8 -2.1,14.7 -4.5,20.1c-0.3,1.2 -0.9,2.4 -1.2,3.3c-3.3,3.6 -6,8.4 -9.3,14.1c-3.9,7.2 -8.7,15.3 -15,21.9c-17.7,18.9 -24.3,2.7 -97.2,-65.4c-36,-33.9 -73.2,-74.1 -99,-118.8c-25.2,-44.1 -39.6,-93 -30.9,-145.2l0.3,-2.4c6.6,-39.6 -8.4,-78.9 26.7,-102.3l0.3,0.3c0.3,0.9 0.9,1.8 1.8,2.4c2.7,1.8 6.6,1.2 8.4,-1.5c1.8,-2.4 18.3,-0.9 31.2,0.3c7.2,0.9 13.2,1.5 16.8,1.2l2.1,0c13.8,0 28.8,10.5 40.5,22.5c11.7,12 20.1,25.2 20.4,30.3l0,0.3Zm9.9,-8.4c-1.8,-3.9 -4.5,-8.7 -7.8,-13.8l9,0.6c24.6,1.8 67.8,5.1 75.9,5.7c30.6,3 73.2,10.2 116.1,19.2c-9,18 -6,47.4 -3.6,72c1.5,15.3 2.7,28.8 0.9,34.2c-5.4,15.6 -7.2,32.4 -6.3,48.6c0.9,22.2 6.6,43.5 13.5,59.7c6.9,16.2 15.6,27.9 22.5,31.2c3.3,7.8 13.2,20.7 24.6,33.3c18.3,20.7 41.4,42.6 47.1,45c73.8,31.5 75.6,64.5 77.1,88.8c1.2,22.5 2.4,39 41.1,43.8c28.8,3.6 53.4,16.5 75.3,28.2c10.8,5.7 21.3,11.1 30.9,14.7c35.7,13.8 65.1,7.8 95.4,-69.6c18.6,-7.5 31.2,-10.8 42.3,-13.8c20.7,-5.7 36.6,-9.9 74.4,-34.2c29.7,-18.9 43.8,-21.3 53.1,-22.8c5.4,-0.9 9.6,-1.5 14.1,-4.5c33.3,-21.6 49.2,-19.2 63,-17.4c16.8,2.4 31.2,4.5 60.6,-24c0.9,2.7 1.5,4.8 1.8,6.6c3,10.8 3.9,13.8 30,55.8c-12,4.5 -23.1,14.1 -34.2,23.7c-9,7.8 -18.3,15.6 -26.7,19.8c-13.8,6.6 -27.6,3.9 -41.7,-24.9c-0.9,-1.8 -2.7,-3 -4.5,-3.3c-29.7,-4.8 -48,9.3 -69,25.5c-24.3,18.6 -52.5,40.5 -109.5,35.7c-0.6,-0.3 -1.2,-0.3 -1.8,-0.3c-1.2,0.3 -2.1,0.6 -2.7,1.2c-0.9,0.6 -1.5,1.2 -1.8,2.4c-0.6,0.9 -0.9,2.1 -0.6,3.3c0.3,2.7 2.4,4.8 5.1,5.1l1.2,0c-0.3,0.6 0,0.6 0.3,0.9c1.8,0.9 4.5,2.4 8.1,4.2c18,9 51.6,27 68.7,39c26.4,18.3 43.5,29.7 64.2,33c20.7,3.3 44.1,-1.2 82.5,-14.4c2.4,-0.9 9.3,-3.6 15.9,-7.2c-1.2,8.4 -1.8,17.4 -0.9,27.3c2.1,28.5 3.9,58.5 4.5,88.5c0.6,29.7 0,59.4 -2.4,87.3c-4.5,48.9 -61.8,55.5 -129.3,49.5c-36.6,-3.6 -76.5,-10.8 -113.1,-17.7c-42.6,-7.8 -80.7,-14.7 -104.7,-13.8c-51.6,2.4 -107.7,-15.9 -158.7,-45.3c-56.7,-32.7 -107.1,-78.9 -138.6,-126c-20.1,-30.3 -43.2,-49.5 -65.7,-68.1c-35.1,-29.4 -68.7,-57.6 -85.5,-127.5c-0.3,-3.6 -0.9,-7.8 -1.8,-12c-1.5,-8.1 -3.3,-16.8 -4.2,-20.7l0,-0.3c-0.3,-0.9 0.6,0.6 1.2,-0.6c2.7,-6.6 7.8,-18.9 4.8,-27.9c-20.1,-61.8 -20.1,-62.4 -15.6,-72.9c5.1,-11.4 13.8,-32.1 15.3,-114.6c3.6,-15.9 -3,-24.9 -8.7,-32.4c-3.3,-4.5 -6,-8.4 -3.9,-12.9c0.6,-0.9 0.9,-2.4 0.9,-3.6c-0.9,-5.7 -5.4,-16.2 -12,-27.9c-8.1,-13.8 -19.8,-30 -33,-42.3c-14.1,-12.9 -30.3,-21.3 -46.5,-18.9c-2.4,0.6 -4.5,0.9 -6.6,1.8Zm-17.4,-25.8c-1.5,-1.8 -2.7,-3.3 -4.2,-4.8c-3,-2.7 -6,-5.7 -9,-8.4c18.6,-3 62.7,-9.3 100.8,-14.1c33.3,-4.2 61.8,-7.8 65.4,-7.2c18,2.1 33.6,5.1 48.9,8.7l0.9,0c16.5,3.9 32.4,8.1 48.6,12.6c45,12.6 93.6,26.1 176.1,32.1c15,1.2 24.9,5.1 33.9,8.7c18.6,7.5 33.6,13.8 74.7,-4.5c69,-30 158.4,-17.1 234.9,-6c36.6,5.4 70.5,10.2 97.8,9.9c13.8,-0.3 27.3,-6.9 44.1,-15.6c22.8,-11.4 52.2,-26.1 95.1,-30.6c3.9,-0.6 9.6,-3.3 14.7,-5.7c1.2,-0.6 2.4,-1.2 3.6,-1.8c34.2,6.3 69.6,12.9 70.5,15.3c0.9,3.3 1.2,8.4 0.6,15c-2.1,24.3 -15.3,65.4 -33.6,102.3c-17.7,36.3 -40.2,68.1 -60.9,75.6c-2.4,0.6 -4.5,1.2 -6.9,1.2c-0.6,-0.6 -1.2,-1.5 -1.8,-2.1c5.7,-3 14.1,-13.5 23.1,-27c15.9,-24.3 36.3,-58.2 40.5,-66.3c29.4,-55.8 26.7,-81.3 9,-90.9c-20.4,-10.5 -59.7,2.4 -92.7,13.5c-12.6,4.2 -24.3,8.4 -33.6,10.2c-4.2,0.6 -8.1,1.8 -11.7,3l-0.3,0.3c-13.2,5.1 -21.3,14.7 -25.8,26.4c-4.2,11.4 -5.1,24.9 -3,37.8c0,0.9 0,1.8 0.3,2.7c-5.4,-6.3 -9.6,-12.3 -12,-18l0,-0.3l-0.3,0l0,-0.3l-0.3,-0.3c-0.3,-0.9 -0.9,-1.2 -1.5,-1.8l-0.3,0l0,-0.3l-0.6,0l0,-0.3l-0.6,0c-1.2,-0.6 -2.4,-0.6 -3.6,-0.3l0,0.3l-0.9,0l0,0.3l-0.3,0l-0.3,0.3c-0.3,0.3 -0.6,0.3 -0.9,0.6c-20.4,17.7 -34.8,44.4 -50.4,73.5c-36,67.5 -78.6,146.4 -215.1,132.6c-28.5,-3 -50.4,-13.5 -65.7,-30c-16.2,-17.4 -25.2,-41.4 -27.3,-70.5c-6.6,-92.7 -21.6,-93.9 -73.5,-97.8c-24,-1.8 -56.4,-4.2 -100.8,-18.3c-30.9,-10.2 -77.1,-21.9 -123.6,-31.8l-0.3,0l-4.2,-0.9c-45,-9.6 -90,-17.4 -121.8,-20.4c-8.1,-0.9 -51.6,-3.9 -76.2,-5.7c-9.9,-0.9 -15.9,-1.2 -16.2,-1.2c-1.2,-0.3 -2.4,-0.3 -3.3,0.3Zm-25.8,-22.2c-9,-5.4 -18.3,-8.7 -27.6,-8.7l-3,0c-2.7,0.3 -8.4,-0.3 -14.7,-0.9c-11.7,-1.2 -25.5,-2.4 -34.2,0l-0.3,-0.6c-0.3,-0.6 -0.6,-0.9 -0.6,-1.2c-48.3,-77.7 -43.2,-111.6 -36.3,-160.8c3.9,-28.2 8.7,-60.9 5.4,-108.6c-1.5,-20.4 15.3,-68.4 37.8,-115.2c21.3,-44.4 47.7,-87.6 69,-106.2c3,-2.7 7.8,-8.7 13.5,-16.2c14.7,-18.9 37.5,-48.6 53.4,-48.9c1.8,0.9 3.9,0.6 6.3,-1.2c0,-0.3 0.3,-0.6 0.6,-0.9c0.6,-0.3 0.9,-0.9 1.5,-1.5c3.6,-4.8 15,-19.8 24,-22.5c3,-0.6 6,0.9 7.8,7.8c2.7,9 7.8,11.4 14.7,9.3c8.7,-2.4 19.8,-15.3 31.2,-28.8c9.6,-11.7 19.8,-23.7 27.9,-28.8c3,-1.8 5.4,-2.4 6.9,-0.3c3,4.8 7.8,4.8 13.8,0.9c8.4,-5.4 22.8,-19.8 37.8,-34.8c18.3,-18.6 37.2,-37.8 39,-37.2c1.5,0.6 -3,1.5 -5.1,7.5c-7.5,19.5 -7.8,26.7 -2.1,28.8c3.6,1.2 6.6,-0.9 10.8,-3.6c2.4,-1.8 5.4,-3.9 8.1,-4.8c3.9,-1.8 8.4,-0.9 12,8.1c6.6,16.2 30.6,7.2 60.9,-4.2c38.4,-14.4 88.5,-33 112.5,-5.7c5.4,6.6 24.9,4.8 51,2.4c44.7,-4.2 111.3,-10.2 150.6,13.2c16.8,9.6 29.1,6 40.8,2.7c12,-3.6 22.5,-6.6 36.3,15.3c11.7,18 24.9,22.5 34.2,24c-0.9,0.6 -2.1,1.2 -3.3,2.4c-3.6,3 -7.8,6.9 -14.4,12.9c-2.4,2.4 -2.4,6 -0.3,8.4c0.9,0.9 1.8,1.5 2.7,1.8c8.4,2.4 14.1,3.6 18.6,4.2c-0.6,2.1 -0.9,4.5 -1.2,7.5c0,3.3 2.7,6.3 6,6.3c0.6,0 1.2,0 1.8,-0.3c6,-1.5 15.6,-2.1 26.4,-3c24,-1.8 55.2,-3.9 81.6,-17.1c-3.9,6.9 -6.6,12.6 -6.6,14.7c0.6,3.9 2.7,5.7 6.6,5.4l0.3,0c10.2,-1.2 13.8,-3.6 13.8,-2.7c0,0 -6,4.8 -12.3,9.6c-8.4,6.6 -17.1,13.2 -16.8,19.8c0.6,6.3 6.6,9.6 21.9,8.4c4.5,-0.3 6.6,0.3 6.6,1.2c1.5,18.9 -72.6,85.8 -79.8,92.1l-0.6,0.6c-2.4,2.4 -2.4,6 -0.3,8.4c0.6,0.6 0.9,0.9 1.8,1.2c6,3.3 12,4.2 17.4,3.6c-3.3,5.1 -7.5,11.4 -12,18.9c-1.5,2.4 -3,6 -4.5,10.2c-0.9,2.1 -1.2,4.2 -1.2,5.7c-0.9,-0.3 -1.8,-0.3 -3,-0.3c-1.5,0.3 -3,1.2 -3.9,2.4c-7.2,8.4 -45.6,3.6 -88.2,-6.9c-47.4,-12 -99.3,-31.5 -120.9,-48.3c-21,-16.5 -29.7,-14.4 -41.7,-11.4c-12,3 -28.2,7.2 -75,-17.1c-1.5,-0.6 -95.4,3.9 -154.8,18.9c-14.7,3.6 -27.6,8.1 -36.9,13.2c-10.8,6 -16.8,13.2 -16.2,21.9c0.6,7.2 6,14.7 17.4,21.9l0.3,0.3l0,0.9c-0.9,0.6 -1.8,1.2 -2.7,2.1c-68.4,72.6 -43.8,98.4 -1.8,141.9c14.4,15.3 30.9,32.4 45.9,54.9c17.7,26.4 6.3,43.2 -15.3,57.9c-10.5,6.9 -23.4,13.5 -36.6,20.4c-47.4,24.3 -99.6,51 -82.2,111.3c-12.6,-2.7 -25.8,-4.8 -40.2,-6.6c-4.8,-0.6 -34.5,2.7 -68.4,6.9c-45.6,6 -99.6,13.8 -109.2,15.9c-1.2,0 -2.1,0.6 -2.7,1.2Zm267.9,294.3c-3.9,-1.5 -10.2,-10.8 -16.2,-24.9c-6.3,-15 -11.7,-34.8 -12.6,-55.5c-0.6,-14.7 0.9,-30 5.7,-44.1c2.7,-7.8 1.5,-22.5 -0.3,-39.3c-2.4,-24.6 -5.1,-54.6 4.2,-68.1c45,9.9 89.1,21 119.1,30.9c45.6,14.7 78.9,17.1 103.5,18.9c43.8,3.3 56.4,4.2 62.7,86.7c2.1,31.5 12.3,58.2 30.3,77.7c17.4,18.6 41.7,30.3 73.2,33.6c144.6,14.7 189,-68.1 226.8,-138.6c13.5,-25.2 26.4,-48.9 42.3,-65.1c6,10.2 15.6,20.1 26.4,30.6c0.3,0.3 0.6,0.3 0.6,0.6c7.8,7.2 16.2,14.7 24.9,22.2c46.8,40.5 99.9,86.7 61.2,143.1c-23.1,33.3 -33.3,30.3 -49.2,25.8c-19.8,-6 -46.8,-14.1 -103.5,19.2c-1.8,0.9 -4.2,1.5 -6.9,1.8c-11.1,0.6 -26.4,-4.5 -40.2,-11.1c-13.5,-6.6 -24.9,-14.4 -28.2,-19.8c0,-0.6 -0.3,-0.6 -0.3,-0.9c0,-3.3 -3,-5.7 -6.3,-5.4c-3.3,0 -5.7,3 -5.4,6.3c0,1.8 0.6,3.9 1.8,6c4.5,7.5 18,17.1 33.3,24.6c15.3,7.2 33,12.9 45.9,12c4.5,-0.3 9,-1.2 12.3,-3.3c35.7,-21 58.5,-24 74.7,-22.5c4.8,10.8 8.1,18.9 10.2,24.9c-27.9,28.2 -39.9,26.7 -54.3,24.6c-15.9,-2.1 -34.2,-4.8 -71.1,19.2c-2.7,1.5 -5.7,2.1 -9.6,2.7c-10.5,1.8 -26.1,4.5 -57.6,24.6c-36.3,23.1 -51.6,27.3 -71.1,32.4c-12,3.3 -25.5,6.9 -45.9,15.3c-1.5,0.6 -3,1.8 -3.6,3.6c-27,70.2 -51.6,76.5 -80.7,65.1c-9.3,-3.6 -19.5,-8.7 -30,-14.1c-22.8,-12 -48.3,-25.5 -79.5,-29.4c-28.8,-3.6 -29.4,-15.9 -30.3,-33c-1.8,-27.3 -3.9,-64.5 -84.6,-98.7c-4.5,-1.8 -25.5,-22.5 -42.9,-42c-12.3,-14.1 -22.5,-27 -22.8,-30.9c-0.3,-3.3 -2.7,-5.7 -6,-5.7Zm483.3,239.1l0.6,0.3c4.8,1.5 7.8,2.7 12.9,3c8.4,0.6 22.2,-0.6 59.4,-3.9l8.4,-0.9c3.3,-0.3 9.6,-0.6 18,-1.2c33.3,-2.1 95.1,-6 123.9,-15.3c-9.3,13.5 -18.3,28.8 -23.4,47.4c-1.8,1.2 -3.6,2.7 -6,3.9c-6.6,3.9 -14.7,7.2 -17.1,8.1c-36.6,12.6 -58.2,17.1 -76.8,14.1c-18,-3 -34.2,-13.5 -59.1,-31.2c-10.2,-6.9 -25.8,-15.9 -40.8,-24.3Zm241.8,-24c0.3,-0.3 0.3,-0.3 0.6,-0.6c18,-24.9 32.1,-45 14.7,-72.9c-29.1,-47.1 -29.7,-49.5 -32.7,-59.7c-1.8,-6.3 -4.2,-15.6 -13.5,-37.5c1.8,0.3 3.6,0.9 5.1,1.5c21,6 34.2,9.9 62.1,-30.6c24.3,-35.1 18.6,-66 0.3,-93.9c1.2,-0.3 2.1,-0.6 3.3,-0.9c23.7,-8.4 48.3,-42.9 67.5,-81.6c18.6,-38.1 32.4,-80.7 34.5,-106.5c0.9,-8.1 0.6,-15 -1.2,-19.8c-3.3,-9.3 -51.9,-18 -92.7,-25.2c-17.7,-3.3 -33.9,-6.3 -43.5,-8.4c2.7,-4.5 4.8,-8.4 6.6,-12c0.3,-0.6 0.6,-1.2 0.9,-1.8c13.2,-26.7 6.3,-29.4 -3,-33c-3,-1.2 -6.6,-2.4 -7.2,-9c-4.5,-42.9 -41.1,-100.5 -77.7,-158.4c-33.9,-53.7 -68.1,-107.4 -75.9,-148.2c2.7,-3 4.8,-8.4 6.9,-13.8c1.5,-3.3 3,-6.6 3.9,-8.1c13.2,-21.6 20.7,-31.8 24,-35.7l0.3,-0.6c0.6,-0.6 1.2,-1.2 1.5,-1.5c1.2,-1.5 2.7,-3.6 4.2,-5.4c45.9,-56.7 51,-67.5 40.8,-59.4c8.4,-15 -0.3,-9.3 -55.5,58.5c-0.3,0.3 -0.9,0.9 -1.5,1.2c-3,2.7 -8.4,6 -14.7,6c21.3,-19.8 77.7,-74.1 76.2,-95.1c-0.6,-8.4 -6.6,-12.9 -19.5,-12c-6.6,0.3 -9,3.6 -9,2.4c0,0 6,-4.8 12.3,-9.6c8.7,-6.6 17.4,-13.5 16.8,-20.1c-0.6,-5.1 -5.4,-8.4 -17.4,-8.4c1.8,-2.4 3.6,-5.7 5.4,-8.7c2.7,-4.5 3.9,-8.7 4.8,-11.4c1.5,-1.2 3,-2.4 4.5,-3.9c2.4,-2.4 2.4,-6 0.3,-8.4c-0.3,-0.3 -0.6,-0.6 -0.9,-0.6c-1.2,-1.2 -2.7,-1.5 -4.5,-1.2c-1.2,0.3 -2.4,0.9 -3.3,1.8c-26.1,24.6 -67.8,27.6 -97.5,30c-7.2,0.3 -14.1,0.9 -19.8,1.8c0.3,-0.6 0.6,-0.9 0.9,-0.9c3.9,-3.3 5.7,-5.1 0,-9.6c-1.5,-1.2 -2.4,-1.2 -4.2,-1.2l-0.3,0c-1.2,0 -4.8,0 -13.5,-1.8l6,-5.4c10.5,-9.3 14.4,-12.9 12.6,-17.7c-1.5,-4.5 -4.5,-4.8 -9.3,-4.8c-6.3,-0.6 -20.1,-1.2 -31.8,-19.5c-18.9,-29.1 -33.6,-24.9 -49.8,-20.1c-9.3,2.7 -19.2,5.4 -31.2,-1.5c-42.9,-25.5 -111.9,-19.2 -157.8,-15c-22.8,2.1 -39.6,3.6 -41.1,1.8c-29.4,-33.6 -84,-13.2 -125.7,2.4c-24,9.3 -43.5,16.5 -45.6,10.8c-7.2,-18 -17.7,-18.6 -27.3,-14.7c-2.4,0.9 -4.5,2.1 -6.6,3.3c1.8,-2.1 3.6,-4.5 5.1,-8.4c5.1,-13.8 3.9,-20.7 -1.8,-22.8c-9,-3.3 -30.6,18.6 -51.9,39.9c-14.1,14.4 -27.9,28.2 -35.1,33c-5.7,-6.3 -12.9,-5.4 -21,-0.3c-9.6,6 -20.4,18.6 -30.6,30.9c-10.5,12.3 -20.1,23.7 -25.5,25.2c0,0 0.3,-0.3 0,-1.2c-4.5,-15.3 -12.9,-18.6 -22.5,-15.9c-12,3.6 -24.6,19.5 -29.4,25.5c-21.9,0.9 -46.5,33 -62.7,53.7c-5.1,6.9 -9.6,12.3 -11.7,14.4c-22.5,19.8 -50.1,64.5 -71.7,109.8c-23.4,48.9 -40.8,99 -39.3,121.5c3.3,46.5 -1.2,78.6 -5.1,105.9c-7.2,50.7 -12.3,86.1 34.8,164.1c-40.5,25.5 -26.1,68.7 -33,110.7l-0.6,2.7c-9,55.2 6,106.5 32.7,153c26.4,45.9 64.2,87 101.1,121.5c80.1,75 92.4,88.2 114,65.1c7.2,-7.8 12.3,-16.8 16.8,-24.3l0.6,-1.5c15.6,87.6 53.4,119.1 93.3,152.7c21.6,18 44.1,36.6 63.3,65.4c32.4,48.6 84.3,96 142.5,129.6c53.1,30.6 111.3,49.5 165.3,47.1c22.5,-0.9 60,6 102,13.8c36.6,6.6 76.8,14.1 114.3,17.4c73.8,6.9 136.5,-1.8 141.9,-60c2.7,-28.5 3.3,-58.8 2.7,-88.8c-0.9,-30.3 -2.7,-60.3 -4.8,-89.1c-0.9,-13.5 0.3,-25.5 3.3,-36.3c2.7,-3.3 4.2,-6.9 3,-10.5c6.9,-19.5 18,-35.1 28.2,-48.9l0,-0.3Zm-6.6,-11.1c-2.7,-1.2 -6,0 -7.5,2.7c-5.1,9.9 -88.8,15.3 -129.3,17.7c-7.8,0.6 -14.1,1.2 -18.3,1.5l-8.1,0.6c-36.6,3.3 -50.1,4.5 -57.6,3.9c-3.9,-0.3 -6.3,-0.9 -9.9,-2.4l-2.1,-0.6c32.7,-6 53.4,-21.9 71.7,-36.3c18.3,-13.8 33.9,-26.1 57,-23.4c18,34.5 36.9,36.9 56.1,27.3c10.2,-4.8 19.8,-13.2 29.4,-21.3c10.8,-9.6 22.2,-18.9 32.4,-22.2c9.3,18.3 -0.3,33.9 -13.8,52.5Zm7.2,-562.5c1.2,0.6 2.7,1.2 3.9,1.8c2.7,0.9 4.5,1.8 -2.4,15.6c-5.4,1.8 -13.5,6 -22.2,10.5c-13.2,6.6 -27.9,13.8 -30.6,14.4c-19.8,3 -38.7,18.9 -53.1,30.9c-5.1,4.5 -9.9,8.4 -12.6,10.2c3.9,-63 50.1,-70.5 86.1,-76.5c11.7,-1.8 22.2,-3.6 30.9,-6.9Zm-119.7,84.6c-0.9,0 0.3,0 1.5,-0.3c-0.6,0.3 -1.2,0.3 -1.5,0.3Zm-120.6,-53.1c-12,14.4 -43.5,11.1 -75.6,7.5c-27,-3 -54,-6 -73.2,1.2c-6.9,2.7 -49.8,14.4 -83.1,20.4c-12.9,2.1 -24.3,3.9 -30,3.6c0.3,-0.6 0.6,-1.2 0.9,-1.5c2.4,-3.6 26.4,-12 55.5,-21c45,-13.8 101.1,-28.5 115.8,-30.9c9.6,-1.5 34.5,5.7 56.1,12c12.9,3.9 24.6,7.5 33.6,8.7Zm-76.8,19.5c41.7,4.5 82.5,9 92.1,-23.7c0.3,-1.8 0,-3.9 -1.2,-5.4c-2.1,-2.4 -6,-3 -8.4,-0.9c-0.9,0.9 -17.4,-4.2 -35.7,-9.6c-23.1,-6.6 -49.2,-14.4 -61.5,-12.3c-15.3,2.4 -72.3,17.1 -117.3,31.2c-31.5,9.9 -57.9,19.5 -62.1,25.5c-0.9,1.8 -1.8,3.3 -3,5.1c-0.9,2.1 -2.1,4.2 -3,5.1l-0.6,0.9c-2.4,2.4 -2.4,6 0,8.4c2.4,2.1 6,2.1 8.4,0l0.3,-0.6c8.4,1.8 22.8,0.3 39,-2.4c33.9,-6 78,-18 85.2,-21c16.5,-6 42.3,-3.3 67.8,-0.3Zm177.9,105c0.3,0.3 0.6,0.3 0.9,0.6c-1.2,1.5 -1.8,3.3 -1.5,5.1c0.6,3 3.6,5.1 6.3,4.8c-0.6,0.3 -1.5,0.6 -1.8,1.5c-1.2,4.2 -3.6,9.9 -6.6,16.5c-13.5,27.6 -41.1,68.4 -51,78.3c-15.3,15.3 -61.2,39 -104.4,53.7c-33,10.8 -63.9,16.5 -78,8.7c-25.8,-14.4 -28.2,-48.3 -30.3,-82.5c-0.6,-9.6 -1.5,-19.2 -2.4,-28.8c-2.4,-18 0.6,-32.7 7.8,-44.7c11.1,-19.2 33,-32.1 59.4,-39.3c27,-7.8 58.8,-9.9 89.7,-7.8c48.9,3.3 94.2,16.8 111.9,33.9Zm9.3,-1.2c1.2,-2.4 0.9,-5.4 -1.2,-7.5c-19.2,-18.9 -67.8,-33.6 -119.4,-36.9c-31.8,-2.1 -65.1,0 -93.6,7.8c-29.1,8.4 -53.4,22.8 -66.6,45.3c-8.1,14.1 -11.7,31.2 -9.3,51.9c1.2,8.7 1.8,18.3 2.4,27.9c2.4,37.8 5.1,74.7 36.6,92.1c17.4,9.9 51.9,4.2 87.3,-7.8c45,-15 92.7,-40.2 109.2,-56.4c10.5,-10.5 39.3,-52.8 53.1,-81.6c3.6,-7.2 6.3,-13.8 7.5,-18.9c1.8,-7.5 0.9,-13.2 -4.5,-15.6l-0.6,0c-0.3,-0.3 -0.6,-0.3 -0.9,-0.3Zm149.4,104.1c-13.8,-15.3 -30.6,-30 -46.8,-43.8c-8.4,-7.2 -16.5,-14.4 -23.7,-21.3c-2.4,-6.6 -4.5,-14.1 -5.4,-21.3c-1.5,-11.4 -1.2,-22.8 2.4,-32.1c3.3,-8.7 9.3,-15.9 18.9,-19.5l0.3,-0.3c2.7,-0.9 6,-1.8 9.3,-2.1l0.9,-0.3c9.6,-2.1 21.6,-6 34.8,-10.5c30.9,-10.5 67.5,-22.5 83.1,-14.4c11.7,6.3 11.4,26.7 -13.8,75c-4.2,7.8 -24.3,41.1 -39.9,65.1c-8.4,12.6 -11.1,23.7 -12.6,23.1c-2.7,-1.2 -6,0 -7.5,2.4Zm-742.2,-874.8c-0.9,-0.3 -0.6,-0.6 -0.3,-1.2c0.6,0.9 1.5,1.5 0.3,0.9l0,0.3Z" style="fill:#373435;fill-rule:nonzero;"/><path d="M977.225,330.332c8.4,42.9 42.9,97.5 77.4,152.1c36,56.4 71.7,113.1 76.2,153c0.3,3 0.9,5.4 1.5,7.5c-6.6,2.1 -14.7,3.3 -23.7,4.8c-40.2,6.6 -91.8,15 -96.3,87.3c-0.3,9.6 2.7,13.8 8.7,14.1c6,0.3 13.8,-6 23.7,-14.4c13.2,-10.8 30.6,-25.5 47.4,-28.2c4.5,-0.9 19.8,-8.7 33.9,-15.6c2.7,-1.2 5.1,-2.7 7.2,-3.9l-2.1,3.6c-1.5,3 -0.6,6.6 2.1,8.1c0.3,0.3 0.9,0.6 1.2,0.6c6.6,2.4 22.8,5.4 42.3,9c-43.2,5.1 -72.6,19.8 -95.7,31.5c-15.3,7.8 -27.9,14.1 -39,14.1c-26.4,0.6 -59.7,-4.5 -96,-9.6c-77.7,-11.4 -169.2,-24.6 -241.2,6.9c-36.6,16.2 -49.5,10.8 -65.4,4.5c-9.9,-4.2 -20.7,-8.4 -37.5,-9.6c-81.6,-6 -129.6,-19.5 -174,-31.8c-15.6,-4.2 -30.6,-8.4 -46.2,-12c-19.8,-55.5 29.4,-81 74.1,-103.8c13.5,-6.9 26.7,-13.8 37.8,-21c27.3,-18.6 41.7,-39.9 18.6,-74.4c-15.6,-23.4 -32.7,-41.1 -47.4,-56.4c-36.3,-38.1 -58.2,-60.9 0,-123.6c1.8,0.3 3.3,0 4.5,-0.6c3,-1.2 4.2,-3.3 4.5,-6.3c0.3,-1.5 0,-3.3 -0.6,-5.1c-0.6,-2.1 -2.1,-5.1 -3.3,-7.2c-0.3,-1.8 -1.2,-3.3 -2.7,-4.2c-8.1,-5.1 -11.7,-9.3 -12,-12.9c-0.3,-3.6 3.6,-7.2 9.9,-10.8c8.4,-4.5 20.1,-8.4 34.2,-12c57.3,-14.4 145.2,-20.1 146.4,-19.5c50.7,26.1 69.3,21.3 83.1,18c9,-2.1 15.3,-3.9 31.5,9c23.1,18 76.8,38.1 125.7,50.4c37.8,9.6 73.5,13.8 91.2,8.4Zm-796.2,442.8c0,1.2 0.3,2.4 0.9,3.3l0.3,0l0,0.3l0.3,0l0,0.3l0.3,0l0,0.3l0.3,0l0,0.3c1.2,0.9 2.4,1.2 3.9,1.2c0.9,0 1.5,0 2.4,-0.3l3.9,-1.8c0.6,0 1.2,-0.6 1.8,-0.9c1.5,-0.6 2.7,-0.9 4.2,-0.9c12,-2.1 24.9,5.1 36.6,15.6c12.3,11.4 23.1,26.4 30.9,39.6c5.1,9.3 8.7,17.4 9.9,21.9c-4.2,9.9 0.3,16.2 5.7,23.4c4.2,5.7 9.3,12.6 6.6,23.4c0,0.6 -0.3,1.2 -0.3,1.8c-1.2,80.1 -9.6,99.6 -14.1,110.1c-6.3,14.4 -6.6,15.3 15,81.3c1.8,4.8 -2.1,14.7 -4.5,20.1c-0.3,1.2 -0.9,2.4 -1.2,3.3c-3.3,3.6 -6,8.4 -9.3,14.1c-3.9,7.2 -8.7,15.3 -15,21.9c-17.7,18.9 -24.3,2.7 -97.2,-65.4c-36,-33.9 -73.2,-74.1 -99,-118.8c-25.2,-44.1 -39.6,-93 -30.9,-145.2l0.3,-2.4c6.6,-39.6 -8.4,-78.9 26.7,-102.3l0.3,0.3c0.3,0.9 0.9,1.8 1.8,2.4c2.7,1.8 6.6,1.2 8.4,-1.5c1.8,-2.4 18.3,-0.9 31.2,0.3c7.2,0.9 13.2,1.5 16.8,1.2l2.1,0c13.8,0 28.8,10.5 40.5,22.5c11.7,12 20.1,25.2 20.4,30.3l0,0.3Zm9.9,-8.4c-1.8,-3.9 -4.5,-8.7 -7.8,-13.8l9,0.6c24.6,1.8 67.8,5.1 75.9,5.7c30.6,3 73.2,10.2 116.1,19.2c-9,18 -6,47.4 -3.6,72c1.5,15.3 2.7,28.8 0.9,34.2c-5.4,15.6 -7.2,32.4 -6.3,48.6c0.9,22.2 6.6,43.5 13.5,59.7c6.9,16.2 15.6,27.9 22.5,31.2c3.3,7.8 13.2,20.7 24.6,33.3c18.3,20.7 41.4,42.6 47.1,45c73.8,31.5 75.6,64.5 77.1,88.8c1.2,22.5 2.4,39 41.1,43.8c28.8,3.6 53.4,16.5 75.3,28.2c10.8,5.7 21.3,11.1 30.9,14.7c35.7,13.8 65.1,7.8 95.4,-69.6c18.6,-7.5 31.2,-10.8 42.3,-13.8c20.7,-5.7 36.6,-9.9 74.4,-34.2c29.7,-18.9 43.8,-21.3 53.1,-22.8c5.4,-0.9 9.6,-1.5 14.1,-4.5c33.3,-21.6 49.2,-19.2 63,-17.4c16.8,2.4 31.2,4.5 60.6,-24c0.9,2.7 1.5,4.8 1.8,6.6c3,10.8 3.9,13.8 30,55.8c-12,4.5 -23.1,14.1 -34.2,23.7c-9,7.8 -18.3,15.6 -26.7,19.8c-13.8,6.6 -27.6,3.9 -41.7,-24.9c-0.9,-1.8 -2.7,-3 -4.5,-3.3c-29.7,-4.8 -48,9.3 -69,25.5c-24.3,18.6 -52.5,40.5 -109.5,35.7c-0.6,-0.3 -1.2,-0.3 -1.8,-0.3c-1.2,0.3 -2.1,0.6 -2.7,1.2c-0.9,0.6 -1.5,1.2 -1.8,2.4c-0.6,0.9 -0.9,2.1 -0.6,3.3c0.3,2.7 2.4,4.8 5.1,5.1l1.2,0c-0.3,0.6 0,0.6 0.3,0.9c1.8,0.9 4.5,2.4 8.1,4.2c18,9 51.6,27 68.7,39c26.4,18.3 43.5,29.7 64.2,33c20.7,3.3 44.1,-1.2 82.5,-14.4c2.4,-0.9 9.3,-3.6 15.9,-7.2c-1.2,8.4 -1.8,17.4 -0.9,27.3c2.1,28.5 3.9,58.5 4.5,88.5c0.6,29.7 0,59.4 -2.4,87.3c-4.5,48.9 -61.8,55.5 -129.3,49.5c-36.6,-3.6 -76.5,-10.8 -113.1,-17.7c-42.6,-7.8 -80.7,-14.7 -104.7,-13.8c-51.6,2.4 -107.7,-15.9 -158.7,-45.3c-56.7,-32.7 -107.1,-78.9 -138.6,-126c-20.1,-30.3 -43.2,-49.5 -65.7,-68.1c-35.1,-29.4 -68.7,-57.6 -85.5,-127.5c-0.3,-3.6 -0.9,-7.8 -1.8,-12c-1.5,-8.1 -3.3,-16.8 -4.2,-20.7l0,-0.3c-0.3,-0.9 0.6,0.6 1.2,-0.6c2.7,-6.6 7.8,-18.9 4.8,-27.9c-20.1,-61.8 -20.1,-62.4 -15.6,-72.9c5.1,-11.4 13.8,-32.1 15.3,-114.6c3.6,-15.9 -3,-24.9 -8.7,-32.4c-3.3,-4.5 -6,-8.4 -3.9,-12.9c0.6,-0.9 0.9,-2.4 0.9,-3.6c-0.9,-5.7 -5.4,-16.2 -12,-27.9c-8.1,-13.8 -19.8,-30 -33,-42.3c-14.1,-12.9 -30.3,-21.3 -46.5,-18.9c-2.4,0.6 -4.5,0.9 -6.6,1.8Zm-17.4,-25.8c-1.5,-1.8 -2.7,-3.3 -4.2,-4.8c-3,-2.7 -6,-5.7 -9,-8.4c18.6,-3 62.7,-9.3 100.8,-14.1c33.3,-4.2 61.8,-7.8 65.4,-7.2c18,2.1 33.6,5.1 48.9,8.7l0.9,0c16.5,3.9 32.4,8.1 48.6,12.6c45,12.6 93.6,26.1 176.1,32.1c15,1.2 24.9,5.1 33.9,8.7c18.6,7.5 33.6,13.8 74.7,-4.5c69,-30 158.4,-17.1 234.9,-6c36.6,5.4 70.5,10.2 97.8,9.9c13.8,-0.3 27.3,-6.9 44.1,-15.6c22.8,-11.4 52.2,-26.1 95.1,-30.6c3.9,-0.6 9.6,-3.3 14.7,-5.7c1.2,-0.6 2.4,-1.2 3.6,-1.8c34.2,6.3 69.6,12.9 70.5,15.3c0.9,3.3 1.2,8.4 0.6,15c-2.1,24.3 -15.3,65.4 -33.6,102.3c-17.7,36.3 -40.2,68.1 -60.9,75.6c-2.4,0.6 -4.5,1.2 -6.9,1.2c-0.6,-0.6 -1.2,-1.5 -1.8,-2.1c5.7,-3 14.1,-13.5 23.1,-27c15.9,-24.3 36.3,-58.2 40.5,-66.3c29.4,-55.8 26.7,-81.3 9,-90.9c-20.4,-10.5 -59.7,2.4 -92.7,13.5c-12.6,4.2 -24.3,8.4 -33.6,10.2c-4.2,0.6 -8.1,1.8 -11.7,3l-0.3,0.3c-13.2,5.1 -21.3,14.7 -25.8,26.4c-4.2,11.4 -5.1,24.9 -3,37.8c0,0.9 0,1.8 0.3,2.7c-5.4,-6.3 -9.6,-12.3 -12,-18l0,-0.3l-0.3,0l0,-0.3l-0.3,-0.3c-0.3,-0.9 -0.9,-1.2 -1.5,-1.8l-0.3,0l0,-0.3l-0.6,0l0,-0.3l-0.6,0c-1.2,-0.6 -2.4,-0.6 -3.6,-0.3l0,0.3l-0.9,0l0,0.3l-0.3,0l-0.3,0.3c-0.3,0.3 -0.6,0.3 -0.9,0.6c-20.4,17.7 -34.8,44.4 -50.4,73.5c-36,67.5 -78.6,146.4 -215.1,132.6c-28.5,-3 -50.4,-13.5 -65.7,-30c-16.2,-17.4 -25.2,-41.4 -27.3,-70.5c-6.6,-92.7 -21.6,-93.9 -73.5,-97.8c-24,-1.8 -56.4,-4.2 -100.8,-18.3c-30.9,-10.2 -77.1,-21.9 -123.6,-31.8l-0.3,0l-4.2,-0.9c-45,-9.6 -90,-17.4 -121.8,-20.4c-8.1,-0.9 -51.6,-3.9 -76.2,-5.7c-9.9,-0.9 -15.9,-1.2 -16.2,-1.2c-1.2,-0.3 -2.4,-0.3 -3.3,0.3Zm-25.8,-22.2c-9,-5.4 -18.3,-8.7 -27.6,-8.7l-3,0c-2.7,0.3 -8.4,-0.3 -14.7,-0.9c-11.7,-1.2 -25.5,-2.4 -34.2,0l-0.3,-0.6c-0.3,-0.6 -0.6,-0.9 -0.6,-1.2c-48.3,-77.7 -43.2,-111.6 -36.3,-160.8c3.9,-28.2 8.7,-60.9 5.4,-108.6c-1.5,-20.4 15.3,-68.4 37.8,-115.2c21.3,-44.4 47.7,-87.6 69,-106.2c3,-2.7 7.8,-8.7 13.5,-16.2c14.7,-18.9 37.5,-48.6 53.4,-48.9c1.8,0.9 3.9,0.6 6.3,-1.2c0,-0.3 0.3,-0.6 0.6,-0.9c0.6,-0.3 0.9,-0.9 1.5,-1.5c3.6,-4.8 15,-19.8 24,-22.5c3,-0.6 6,0.9 7.8,7.8c2.7,9 7.8,11.4 14.7,9.3c8.7,-2.4 19.8,-15.3 31.2,-28.8c9.6,-11.7 19.8,-23.7 27.9,-28.8c3,-1.8 5.4,-2.4 6.9,-0.3c3,4.8 7.8,4.8 13.8,0.9c8.4,-5.4 22.8,-19.8 37.8,-34.8c18.3,-18.6 37.2,-37.8 39,-37.2c1.5,0.6 -3,1.5 -5.1,7.5c-7.5,19.5 -7.8,26.7 -2.1,28.8c3.6,1.2 6.6,-0.9 10.8,-3.6c2.4,-1.8 5.4,-3.9 8.1,-4.8c3.9,-1.8 8.4,-0.9 12,8.1c6.6,16.2 30.6,7.2 60.9,-4.2c38.4,-14.4 88.5,-33 112.5,-5.7c5.4,6.6 24.9,4.8 51,2.4c44.7,-4.2 111.3,-10.2 150.6,13.2c16.8,9.6 29.1,6 40.8,2.7c12,-3.6 22.5,-6.6 36.3,15.3c11.7,18 24.9,22.5 34.2,24c-0.9,0.6 -2.1,1.2 -3.3,2.4c-3.6,3 -7.8,6.9 -14.4,12.9c-2.4,2.4 -2.4,6 -0.3,8.4c0.9,0.9 1.8,1.5 2.7,1.8c8.4,2.4 14.1,3.6 18.6,4.2c-0.6,2.1 -0.9,4.5 -1.2,7.5c0,3.3 2.7,6.3 6,6.3c0.6,0 1.2,0 1.8,-0.3c6,-1.5 15.6,-2.1 26.4,-3c24,-1.8 55.2,-3.9 81.6,-17.1c-3.9,6.9 -6.6,12.6 -6.6,14.7c0.6,3.9 2.7,5.7 6.6,5.4l0.3,0c10.2,-1.2 13.8,-3.6 13.8,-2.7c0,0 -6,4.8 -12.3,9.6c-8.4,6.6 -17.1,13.2 -16.8,19.8c0.6,6.3 6.6,9.6 21.9,8.4c4.5,-0.3 6.6,0.3 6.6,1.2c1.5,18.9 -72.6,85.8 -79.8,92.1l-0.6,0.6c-2.4,2.4 -2.4,6 -0.3,8.4c0.6,0.6 0.9,0.9 1.8,1.2c6,3.3 12,4.2 17.4,3.6c-3.3,5.1 -7.5,11.4 -12,18.9c-1.5,2.4 -3,6 -4.5,10.2c-0.9,2.1 -1.2,4.2 -1.2,5.7c-0.9,-0.3 -1.8,-0.3 -3,-0.3c-1.5,0.3 -3,1.2 -3.9,2.4c-7.2,8.4 -45.6,3.6 -88.2,-6.9c-47.4,-12 -99.3,-31.5 -120.9,-48.3c-21,-16.5 -29.7,-14.4 -41.7,-11.4c-12,3 -28.2,7.2 -75,-17.1c-1.5,-0.6 -95.4,3.9 -154.8,18.9c-14.7,3.6 -27.6,8.1 -36.9,13.2c-10.8,6 -16.8,13.2 -16.2,21.9c0.6,7.2 6,14.7 17.4,21.9l0.3,0.3l0,0.9c-0.9,0.6 -1.8,1.2 -2.7,2.1c-68.4,72.6 -43.8,98.4 -1.8,141.9c14.4,15.3 30.9,32.4 45.9,54.9c17.7,26.4 6.3,43.2 -15.3,57.9c-10.5,6.9 -23.4,13.5 -36.6,20.4c-47.4,24.3 -99.6,51 -82.2,111.3c-12.6,-2.7 -25.8,-4.8 -40.2,-6.6c-4.8,-0.6 -34.5,2.7 -68.4,6.9c-45.6,6 -99.6,13.8 -109.2,15.9c-1.2,0 -2.1,0.6 -2.7,1.2Zm267.9,294.3c-3.9,-1.5 -10.2,-10.8 -16.2,-24.9c-6.3,-15 -11.7,-34.8 -12.6,-55.5c-0.6,-14.7 0.9,-30 5.7,-44.1c2.7,-7.8 1.5,-22.5 -0.3,-39.3c-2.4,-24.6 -5.1,-54.6 4.2,-68.1c45,9.9 89.1,21 119.1,30.9c45.6,14.7 78.9,17.1 103.5,18.9c43.8,3.3 56.4,4.2 62.7,86.7c2.1,31.5 12.3,58.2 30.3,77.7c17.4,18.6 41.7,30.3 73.2,33.6c144.6,14.7 189,-68.1 226.8,-138.6c13.5,-25.2 26.4,-48.9 42.3,-65.1c6,10.2 15.6,20.1 26.4,30.6c0.3,0.3 0.6,0.3 0.6,0.6c7.8,7.2 16.2,14.7 24.9,22.2c46.8,40.5 99.9,86.7 61.2,143.1c-23.1,33.3 -33.3,30.3 -49.2,25.8c-19.8,-6 -46.8,-14.1 -103.5,19.2c-1.8,0.9 -4.2,1.5 -6.9,1.8c-11.1,0.6 -26.4,-4.5 -40.2,-11.1c-13.5,-6.6 -24.9,-14.4 -28.2,-19.8c0,-0.6 -0.3,-0.6 -0.3,-0.9c0,-3.3 -3,-5.7 -6.3,-5.4c-3.3,0 -5.7,3 -5.4,6.3c0,1.8 0.6,3.9 1.8,6c4.5,7.5 18,17.1 33.3,24.6c15.3,7.2 33,12.9 45.9,12c4.5,-0.3 9,-1.2 12.3,-3.3c35.7,-21 58.5,-24 74.7,-22.5c4.8,10.8 8.1,18.9 10.2,24.9c-27.9,28.2 -39.9,26.7 -54.3,24.6c-15.9,-2.1 -34.2,-4.8 -71.1,19.2c-2.7,1.5 -5.7,2.1 -9.6,2.7c-10.5,1.8 -26.1,4.5 -57.6,24.6c-36.3,23.1 -51.6,27.3 -71.1,32.4c-12,3.3 -25.5,6.9 -45.9,15.3c-1.5,0.6 -3,1.8 -3.6,3.6c-27,70.2 -51.6,76.5 -80.7,65.1c-9.3,-3.6 -19.5,-8.7 -30,-14.1c-22.8,-12 -48.3,-25.5 -79.5,-29.4c-28.8,-3.6 -29.4,-15.9 -30.3,-33c-1.8,-27.3 -3.9,-64.5 -84.6,-98.7c-4.5,-1.8 -25.5,-22.5 -42.9,-42c-12.3,-14.1 -22.5,-27 -22.8,-30.9c-0.3,-3.3 -2.7,-5.7 -6,-5.7Zm483.3,239.1l0.6,0.3c4.8,1.5 7.8,2.7 12.9,3c8.4,0.6 22.2,-0.6 59.4,-3.9l8.4,-0.9c3.3,-0.3 9.6,-0.6 18,-1.2c33.3,-2.1 95.1,-6 123.9,-15.3c-9.3,13.5 -18.3,28.8 -23.4,47.4c-1.8,1.2 -3.6,2.7 -6,3.9c-6.6,3.9 -14.7,7.2 -17.1,8.1c-36.6,12.6 -58.2,17.1 -76.8,14.1c-18,-3 -34.2,-13.5 -59.1,-31.2c-10.2,-6.9 -25.8,-15.9 -40.8,-24.3Zm241.8,-24c0.3,-0.3 0.3,-0.3 0.6,-0.6c18,-24.9 32.1,-45 14.7,-72.9c-29.1,-47.1 -29.7,-49.5 -32.7,-59.7c-1.8,-6.3 -4.2,-15.6 -13.5,-37.5c1.8,0.3 3.6,0.9 5.1,1.5c21,6 34.2,9.9 62.1,-30.6c24.3,-35.1 18.6,-66 0.3,-93.9c1.2,-0.3 2.1,-0.6 3.3,-0.9c23.7,-8.4 48.3,-42.9 67.5,-81.6c18.6,-38.1 32.4,-80.7 34.5,-106.5c0.9,-8.1 0.6,-15 -1.2,-19.8c-3.3,-9.3 -51.9,-18 -92.7,-25.2c-17.7,-3.3 -33.9,-6.3 -43.5,-8.4c2.7,-4.5 4.8,-8.4 6.6,-12c0.3,-0.6 0.6,-1.2 0.9,-1.8c13.2,-26.7 6.3,-29.4 -3,-33c-3,-1.2 -6.6,-2.4 -7.2,-9c-4.5,-42.9 -41.1,-100.5 -77.7,-158.4c-33.9,-53.7 -68.1,-107.4 -75.9,-148.2c2.7,-3 4.8,-8.4 6.9,-13.8c1.5,-3.3 3,-6.6 3.9,-8.1c13.2,-21.6 20.7,-31.8 24,-35.7l0.3,-0.6c0.6,-0.6 1.2,-1.2 1.5,-1.5c1.2,-1.5 2.7,-3.6 4.2,-5.4c45.9,-56.7 51,-67.5 40.8,-59.4c8.4,-15 -0.3,-9.3 -55.5,58.5c-0.3,0.3 -0.9,0.9 -1.5,1.2c-3,2.7 -8.4,6 -14.7,6c21.3,-19.8 77.7,-74.1 76.2,-95.1c-0.6,-8.4 -6.6,-12.9 -19.5,-12c-6.6,0.3 -9,3.6 -9,2.4c0,0 6,-4.8 12.3,-9.6c8.7,-6.6 17.4,-13.5 16.8,-20.1c-0.6,-5.1 -5.4,-8.4 -17.4,-8.4c1.8,-2.4 3.6,-5.7 5.4,-8.7c2.7,-4.5 3.9,-8.7 4.8,-11.4c1.5,-1.2 3,-2.4 4.5,-3.9c2.4,-2.4 2.4,-6 0.3,-8.4c-0.3,-0.3 -0.6,-0.6 -0.9,-0.6c-1.2,-1.2 -2.7,-1.5 -4.5,-1.2c-1.2,0.3 -2.4,0.9 -3.3,1.8c-26.1,24.6 -67.8,27.6 -97.5,30c-7.2,0.3 -14.1,0.9 -19.8,1.8c0.3,-0.6 0.6,-0.9 0.9,-0.9c3.9,-3.3 5.7,-5.1 0,-9.6c-1.5,-1.2 -2.4,-1.2 -4.2,-1.2l-0.3,0c-1.2,0 -4.8,0 -13.5,-1.8l6,-5.4c10.5,-9.3 14.4,-12.9 12.6,-17.7c-1.5,-4.5 -4.5,-4.8 -9.3,-4.8c-6.3,-0.6 -20.1,-1.2 -31.8,-19.5c-18.9,-29.1 -33.6,-24.9 -49.8,-20.1c-9.3,2.7 -19.2,5.4 -31.2,-1.5c-42.9,-25.5 -111.9,-19.2 -157.8,-15c-22.8,2.1 -39.6,3.6 -41.1,1.8c-29.4,-33.6 -84,-13.2 -125.7,2.4c-24,9.3 -43.5,16.5 -45.6,10.8c-7.2,-18 -17.7,-18.6 -27.3,-14.7c-2.4,0.9 -4.5,2.1 -6.6,3.3c1.8,-2.1 3.6,-4.5 5.1,-8.4c5.1,-13.8 3.9,-20.7 -1.8,-22.8c-9,-3.3 -30.6,18.6 -51.9,39.9c-14.1,14.4 -27.9,28.2 -35.1,33c-5.7,-6.3 -12.9,-5.4 -21,-0.3c-9.6,6 -20.4,18.6 -30.6,30.9c-10.5,12.3 -20.1,23.7 -25.5,25.2c0,0 0.3,-0.3 0,-1.2c-4.5,-15.3 -12.9,-18.6 -22.5,-15.9c-12,3.6 -24.6,19.5 -29.4,25.5c-21.9,0.9 -46.5,33 -62.7,53.7c-5.1,6.9 -9.6,12.3 -11.7,14.4c-22.5,19.8 -50.1,64.5 -71.7,109.8c-23.4,48.9 -40.8,99 -39.3,121.5c3.3,46.5 -1.2,78.6 -5.1,105.9c-7.2,50.7 -12.3,86.1 34.8,164.1c-40.5,25.5 -26.1,68.7 -33,110.7l-0.6,2.7c-9,55.2 6,106.5 32.7,153c26.4,45.9 64.2,87 101.1,121.5c80.1,75 92.4,88.2 114,65.1c7.2,-7.8 12.3,-16.8 16.8,-24.3l0.6,-1.5c15.6,87.6 53.4,119.1 93.3,152.7c21.6,18 44.1,36.6 63.3,65.4c32.4,48.6 84.3,96 142.5,129.6c53.1,30.6 111.3,49.5 165.3,47.1c22.5,-0.9 60,6 102,13.8c36.6,6.6 76.8,14.1 114.3,17.4c73.8,6.9 136.5,-1.8 141.9,-60c2.7,-28.5 3.3,-58.8 2.7,-88.8c-0.9,-30.3 -2.7,-60.3 -4.8,-89.1c-0.9,-13.5 0.3,-25.5 3.3,-36.3c2.7,-3.3 4.2,-6.9 3,-10.5c6.9,-19.5 18,-35.1 28.2,-48.9l0,-0.3Zm-6.6,-11.1c-2.7,-1.2 -6,0 -7.5,2.7c-5.1,9.9 -88.8,15.3 -129.3,17.7c-7.8,0.6 -14.1,1.2 -18.3,1.5l-8.1,0.6c-36.6,3.3 -50.1,4.5 -57.6,3.9c-3.9,-0.3 -6.3,-0.9 -9.9,-2.4l-2.1,-0.6c32.7,-6 53.4,-21.9 71.7,-36.3c18.3,-13.8 33.9,-26.1 57,-23.4c18,34.5 36.9,36.9 56.1,27.3c10.2,-4.8 19.8,-13.2 29.4,-21.3c10.8,-9.6 22.2,-18.9 32.4,-22.2c9.3,18.3 -0.3,33.9 -13.8,52.5Zm7.2,-562.5c1.2,0.6 2.7,1.2 3.9,1.8c2.7,0.9 4.5,1.8 -2.4,15.6c-5.4,1.8 -13.5,6 -22.2,10.5c-13.2,6.6 -27.9,13.8 -30.6,14.4c-19.8,3 -38.7,18.9 -53.1,30.9c-5.1,4.5 -9.9,8.4 -12.6,10.2c3.9,-63 50.1,-70.5 86.1,-76.5c11.7,-1.8 22.2,-3.6 30.9,-6.9Zm-119.7,84.6c-0.9,0 0.3,0 1.5,-0.3c-0.6,0.3 -1.2,0.3 -1.5,0.3Zm-120.6,-53.1c-12,14.4 -43.5,11.1 -75.6,7.5c-27,-3 -54,-6 -73.2,1.2c-6.9,2.7 -49.8,14.4 -83.1,20.4c-12.9,2.1 -24.3,3.9 -30,3.6c0.3,-0.6 0.6,-1.2 0.9,-1.5c2.4,-3.6 26.4,-12 55.5,-21c45,-13.8 101.1,-28.5 115.8,-30.9c9.6,-1.5 34.5,5.7 56.1,12c12.9,3.9 24.6,7.5 33.6,8.7Zm-76.8,19.5c41.7,4.5 82.5,9 92.1,-23.7c0.3,-1.8 0,-3.9 -1.2,-5.4c-2.1,-2.4 -6,-3 -8.4,-0.9c-0.9,0.9 -17.4,-4.2 -35.7,-9.6c-23.1,-6.6 -49.2,-14.4 -61.5,-12.3c-15.3,2.4 -72.3,17.1 -117.3,31.2c-31.5,9.9 -57.9,19.5 -62.1,25.5c-0.9,1.8 -1.8,3.3 -3,5.1c-0.9,2.1 -2.1,4.2 -3,5.1l-0.6,0.9c-2.4,2.4 -2.4,6 0,8.4c2.4,2.1 6,2.1 8.4,0l0.3,-0.6c8.4,1.8 22.8,0.3 39,-2.4c33.9,-6 78,-18 85.2,-21c16.5,-6 42.3,-3.3 67.8,-0.3Zm177.9,105c0.3,0.3 0.6,0.3 0.9,0.6c-1.2,1.5 -1.8,3.3 -1.5,5.1c0.6,3 3.6,5.1 6.3,4.8c-0.6,0.3 -1.5,0.6 -1.8,1.5c-1.2,4.2 -3.6,9.9 -6.6,16.5c-13.5,27.6 -41.1,68.4 -51,78.3c-15.3,15.3 -61.2,39 -104.4,53.7c-33,10.8 -63.9,16.5 -78,8.7c-25.8,-14.4 -28.2,-48.3 -30.3,-82.5c-0.6,-9.6 -1.5,-19.2 -2.4,-28.8c-2.4,-18 0.6,-32.7 7.8,-44.7c11.1,-19.2 33,-32.1 59.4,-39.3c27,-7.8 58.8,-9.9 89.7,-7.8c48.9,3.3 94.2,16.8 111.9,33.9Zm9.3,-1.2c1.2,-2.4 0.9,-5.4 -1.2,-7.5c-19.2,-18.9 -67.8,-33.6 -119.4,-36.9c-31.8,-2.1 -65.1,0 -93.6,7.8c-29.1,8.4 -53.4,22.8 -66.6,45.3c-8.1,14.1 -11.7,31.2 -9.3,51.9c1.2,8.7 1.8,18.3 2.4,27.9c2.4,37.8 5.1,74.7 36.6,92.1c17.4,9.9 51.9,4.2 87.3,-7.8c45,-15 92.7,-40.2 109.2,-56.4c10.5,-10.5 39.3,-52.8 53.1,-81.6c3.6,-7.2 6.3,-13.8 7.5,-18.9c1.8,-7.5 0.9,-13.2 -4.5,-15.6l-0.6,0c-0.3,-0.3 -0.6,-0.3 -0.9,-0.3Zm149.4,104.1c-13.8,-15.3 -30.6,-30 -46.8,-43.8c-8.4,-7.2 -16.5,-14.4 -23.7,-21.3c-2.4,-6.6 -4.5,-14.1 -5.4,-21.3c-1.5,-11.4 -1.2,-22.8 2.4,-32.1c3.3,-8.7 9.3,-15.9 18.9,-19.5l0.3,-0.3c2.7,-0.9 6,-1.8 9.3,-2.1l0.9,-0.3c9.6,-2.1 21.6,-6 34.8,-10.5c30.9,-10.5 67.5,-22.5 83.1,-14.4c11.7,6.3 11.4,26.7 -13.8,75c-4.2,7.8 -24.3,41.1 -39.9,65.1c-8.4,12.6 -11.1,23.7 -12.6,23.1c-2.7,-1.2 -6,0 -7.5,2.4Zm-742.2,-874.8c-0.9,-0.3 -0.6,-0.6 -0.3,-1.2c0.6,0.9 1.5,1.5 0.3,0.9l0,0.3Z" style="fill:url(#_Linear1);fill-rule:nonzero;"/></g><defs><linearGradient id="_Linear1" x1="0" y1="0" x2="1" y2="0" gradientUnits="userSpaceOnUse" gradientTransform="matrix(-1259.6,174.624,-174.624,-1259.6,1279.18,703.979)"><stop offset="0" style="stop-color:#f00;stop-opacity:1"/><stop offset="0.25" style="stop-color:#fff200;stop-opacity:1"/><stop offset="0.52" style="stop-color:#15ff00;stop-opacity:1"/><stop offset="0.79" style="stop-color:#000dff;stop-opacity:1"/><stop offset="1" style="stop-color:#8000ff;stop-opacity:1"/></linearGradient></defs></svg>